<?xml version="1.0" encoding="UTF-8"?>
<svg width="55px" height="49px" viewBox="0 0 55 49" version="1.1" xmlns="http://www.w3.org/2000/svg" xmlns:xlink="http://www.w3.org/1999/xlink">
    <!-- Generator: Sketch 56.3 (81716) - https://sketch.com -->
    <title>50small</title>
    <desc>Created with Sketch.</desc>
    <g id="Web" stroke="none" stroke-width="1" fill="none" fill-rule="evenodd">
        <g id="take9-copy" transform="translate(-447.000000, -872.000000)" fill="#DAAA00" fill-rule="nonzero">
            <g id="intro" transform="translate(22.000000, 790.000000)">
                <g id="intro-paragraph" transform="translate(425.000000, 82.000000)">
                    <g id="50small">
                        <path d="M47.8132674,12.7753027 C49.5762744,13.554124 50.9681011,14.6852522 51.9887894,16.1687213 C53.0094777,17.6521904 53.6265209,19.3071608 53.8399375,21.1336821 C54.0533542,22.9602034 54.0533542,24.7820616 53.8399375,26.5993112 C53.6265209,28.4165609 53.2228911,30.2337832 52.6290361,32.0510329 C51.5712319,35.2961215 49.9938282,38.2073859 47.8967778,40.7849135 C45.7997274,43.362441 43.3408334,45.1703919 40.5200222,46.2088202 C39.0910586,46.8022079 36.5300591,47.0618111 34.813447,46.9876376 C33.0968349,46.9134642 31.5890225,46.4406155 30.2899647,45.5690774 C28.1743563,44.1783251 26.8474815,41.767724 26.3093004,38.3372017 C25.7525613,34.9623095 25.9474171,31.4762095 26.8938735,27.8787969 C27.8403299,24.2813844 29.2971085,20.8787282 31.2642532,17.6707263 C31.988014,16.483951 32.7303216,15.3852732 33.4911983,14.3746599 C34.252075,13.3640465 35.152123,12.3395411 36.1913692,11.3011127 C37.2306155,10.2626843 38.279125,9.4097024 39.3369292,8.74214131 C40.3947334,8.07458022 41.5731467,7.58318845 42.8722045,7.26795127 C44.1712623,6.95271409 45.4703006,6.91562792 46.7693584,7.15669165 C47.4003294,7.28649519 47.0031365,8.80668132 46.5387552,8.95857747 C46.0743739,9.11047363 44.4125145,9.8083754 43.1505727,10.60574 C41.8886308,11.4031047 40.7519723,12.3766167 39.740563,13.5263052 C38.7291537,14.6759938 37.8291057,15.8442081 37.0403921,17.0309834 C36.2516784,18.2177587 35.4861737,19.5343178 34.7438549,20.9807001 C31.8302539,26.580796 30.5776098,32.1900793 30.9858851,37.8087185 C31.2271387,40.9796337 32.0807924,43.1213601 33.5468719,44.2339619 C35.254205,45.5505407 38.7291708,44.9942481 41.9953733,42.5650675 C44.0553078,41.0445117 45.7950913,39.1021235 47.2147759,36.7378446 C48.6344605,34.3735657 49.6968882,31.8099842 50.402091,29.047023 C50.7732504,27.619184 51.0005821,26.1867306 51.084093,24.7496199 C51.1676038,23.3125093 51.0980125,21.8707844 50.8753169,20.424402 C50.6526212,18.9780196 50.1376453,17.6660963 49.3303737,16.4885927 C48.5231021,15.3110892 47.4606743,14.4071137 46.1430585,13.7766394 C45.6048774,13.5170323 45.6048774,13.2481575 46.1430585,12.9700071 C46.6997976,12.6918566 47.2194129,12.6176843 47.7019201,12.7474878 L47.8132674,12.7753027 Z" id="50"></path>
                        <path d="M37,12.6565853 C32.6177658,11.2028487 24.7496635,12.105168 18.6742934,13.1578738 C15.4374159,16.7671508 11.204576,22.7826126 11.204576,22.7826126 C24.7994616,19.674624 28.1857335,29.9510378 28.1857335,32.0063206 C28.1857335,34.0616033 28.4845222,35.816113 19.769852,42.1323478 C11.0053836,48.4485827 3.93405114,49 3.93405114,49 C1.04576043,48.2480673 0,44.7390479 0,44.7390479 C0,44.7390479 1.54374159,39.776292 8.01749664,35.3148245 C14.4912517,30.8533571 19.769852,31.3045167 20.7658143,31.5050321 C21.8115747,31.7055475 21.7119785,32.4073513 21.7119785,32.4073513 C9.95962315,34.1117322 5.12920592,44.7390479 5.12920592,44.7390479 C6.87213997,44.5385325 12.3997308,42.6336363 19.1224764,37.6207515 C25.9946164,32.4073513 25.8950202,25.6900857 20.1682369,25.589828 C14.3916555,25.4895703 9.76043069,29.1991051 9.76043069,29.1991051 C7.71870794,28.3970435 5.12920592,24.9882819 5.12920592,24.9882819 C6.57335128,21.7800356 9.76043069,17.4689547 11.9515478,14.5614815 C10.9555855,14.7619969 10.4078062,14.9123834 10.4078062,14.9123834 C7.32032301,14.0100642 7.51951548,11.9547814 7.51951548,11.9547814 C25.0982503,7.29279856 32.9165545,8.04473127 32.9165545,8.04473127 C36.4024226,9.19769478 37,12.6565853 37,12.6565853 Z" id="50"></path>
                        <path d="M54.4825897,0.170900575 C54.3853583,-0.0487965149 54.1075541,-0.0575843985 53.9912236,0.149809654 C53.4529781,1.09714351 52.4893448,1.68768928 51.3885458,1.68768928 L49.999525,1.68768928 C48.1590724,1.68768928 46.665875,3.19920526 46.665875,5.06223659 C46.665875,5.18526696 46.6797652,5.3030246 46.6919192,5.42253982 C46.7717634,6.03736315 45.4504818,7.20823776 45.0407206,8.22587468 C44.9261264,8.51235969 45.061556,8.83926896 45.344569,8.9570266 C45.6293182,9.07654182 45.9522656,8.93769326 46.0703323,8.65296583 C46.0963765,8.58969306 46.433214,7.81108658 47.3187148,7.06060132 C47.8812682,7.8321775 48.9508143,8.56860214 50.3554616,8.41745055 C53.081415,8.2170868 55,5.74241878 55,2.71235651 C55,1.830053 54.8124822,0.916113104 54.4825897,0.170900575 Z" id="Path"></path>
                    </g>
                </g>
            </g>
        </g>
    </g>
</svg>