<?xml version="1.0" encoding="UTF-8"?>
<svg width="108px" height="152px" viewBox="0 0 108 152" version="1.1" xmlns="http://www.w3.org/2000/svg" xmlns:xlink="http://www.w3.org/1999/xlink">
    <!-- Generator: Sketch 56.3 (81716) - https://sketch.com -->
    <title>50years</title>
    <desc>Created with Sketch.</desc>
    <g id="Web" stroke="none" stroke-width="1" fill="none" fill-rule="evenodd">
        <g id="take9" transform="translate(-100.000000, -356.000000)" fill="#DAAA00" fill-rule="nonzero">
            <g id="upper">
                <g id="Group-3" transform="translate(-74.000000, 0.000000)">
                    <g id="50years" transform="translate(174.000000, 356.000000)">
                        <path d="M91.6308942,25.9270564 C95.0024071,27.4118454 97.6640878,29.5682922 99.6160162,32.3964616 C101.567945,35.2246311 102.747957,38.3797603 103.156087,41.8619439 C103.564217,45.3441275 103.564217,48.817421 103.156087,52.2819286 C102.747957,55.7464361 101.976069,59.2108917 100.840402,62.6753993 C98.8174939,68.8620199 95.8009225,74.4122192 91.7905967,79.3261636 C87.7802709,84.240108 83.0779683,87.6868878 77.6835478,89.6666064 C74.9508479,90.7978741 70.0532822,91.2927964 66.7704934,91.1513879 C63.4877046,91.0099794 60.6042172,90.1085139 58.1199446,88.4469644 C54.0741292,85.7955556 51.5366602,81.1998492 50.5074616,74.6597073 C49.4427733,68.2256219 49.8154086,61.5795234 51.6253787,54.7212125 C53.4353487,47.8629016 56.2212412,41.3758853 59.9831397,35.2599689 C61.3672344,32.9974333 62.7867975,30.9028518 64.2418714,28.9761613 C65.6969454,27.0494709 67.4181656,25.0962957 69.4055837,23.1165771 C71.3930018,21.1368585 73.3981346,19.5106854 75.4210422,18.2380092 C77.4439499,16.965333 79.6975063,16.0285159 82.1817789,15.4275299 C84.6660515,14.8265439 87.1502868,14.7558407 89.6345594,15.2154182 C90.8412061,15.4628831 90.0816284,18.3610519 89.1935618,18.6506354 C88.3054953,18.9402188 85.1274137,20.2707382 82.7141203,21.7908793 C80.300827,23.3110204 78.127121,25.1669787 76.1929374,27.35881 C74.2587537,29.5506413 72.5375335,31.7777914 71.0292251,34.0403269 C69.5209168,36.3028625 68.0569924,38.8128252 66.637408,41.5702904 C61.0655395,52.24663 58.6700269,62.9404853 59.4507982,73.652177 C59.9121632,79.6973892 61.5446607,83.7804976 64.3483397,85.9016246 C67.6133837,88.411625 74.2587865,87.3510774 80.5049576,82.7199499 C84.4443041,79.8210763 87.771405,76.1179974 90.4863601,71.6106024 C93.2013151,67.1032074 95.2330648,62.2158504 96.5816699,56.9483848 C97.2914621,54.2262717 97.7262032,51.4953616 97.8859065,48.7555724 C98.0456097,46.0157833 97.9125257,43.2671974 97.4866504,40.5097322 C97.0607751,37.752267 96.0759532,35.2511421 94.5321552,33.0062826 C92.9883573,30.7614231 90.9566076,29.0380332 88.4368454,27.8360612 C87.4076468,27.3411316 87.4076468,26.8285336 88.4368454,26.2982518 C89.5015337,25.76797 90.4952278,25.6265637 91.4179577,25.8740285 L91.6308942,25.9270564 Z" id="50"></path>
                        <path d="M70.789916,25.5996323 C62.405646,22.8313655 47.3520703,24.5496001 35.7284233,26.5542071 C29.5354966,33.4271453 21.437054,44.8820424 21.437054,44.8820424 C47.4473461,38.9636789 53.9261002,58.5324614 53.9261002,62.4462179 C53.9261002,66.3599744 54.497755,69.700986 37.8244908,81.728628 C21.0559508,93.7562699 7.52678783,94.8063021 7.52678783,94.8063021 C2.0007917,93.37444 0,86.6924167 0,86.6924167 C0,86.6924167 2.95354966,77.2421266 15.3394031,68.7464113 C27.7252565,60.250696 37.8244908,61.1098132 39.7300067,61.4916431 C41.7307984,61.873473 41.5402468,63.2098777 41.5402468,63.2098777 C19.0551591,66.4554319 9.81340692,86.6924167 9.81340692,86.6924167 C13.1480598,86.3105868 23.723673,82.6832027 36.5859054,73.1374552 C49.7339652,63.2098777 49.5434136,50.418576 38.5866971,50.227661 C27.5347049,50.0367461 18.6740559,57.1005993 18.6740559,57.1005993 C14.7677483,55.5732796 9.81340692,49.0821713 9.81340692,49.0821713 C12.576405,42.9728929 18.6740559,34.76355 22.8661909,29.2270164 C20.960675,29.6088463 19.9126412,29.8952187 19.9126412,29.8952187 C14.0055419,28.1769841 14.3866451,24.2632276 14.3866451,24.2632276 C48.0190009,15.3856824 62.9773007,16.8175445 62.9773007,16.8175445 C69.6466064,19.0130665 70.789916,25.5996323 70.789916,25.5996323 Z" id="50"></path>
                        <path d="M30.8658343,117.44037 C32.1014453,117.344637 32.5291568,118.301967 32.5291568,118.301967 C27.6817598,126.056344 21.9314162,131.991793 20.0304762,133.810721 C18.5097242,145.107221 16.6563077,152 14.4702267,152 C12.1415752,152 4.53781513,146.848303 4.53781513,144.915755 C4.53781513,142.983206 11.8564342,136.156181 15.9909787,132.087526 L16.2761197,129.981399 C16.7988782,127.396607 17.2741132,125.099014 17.8443952,123.136486 L18.7948652,119.881563 C14.8504147,124.524615 9.62282965,131.848194 9.62282965,131.848194 C9.10007115,132.135393 4.63286213,130.747264 4.63286213,128.545403 C4.63286213,126.343543 7.76941314,118.6849 9.86044715,114.903444 C11.9514812,111.074122 12.2366222,106.814002 12.2366222,106.814002 C12.8544277,106.814002 15.6107907,106.28747 16.2761197,110.595457 C17.0364957,114.903444 10.6683467,125.194747 10.6683467,125.194747 L20.6482817,114.568379 C21.0284697,113.706781 21.3611342,112.988783 21.6937987,112.318652 L22.8818862,110.260391 C23.8798797,108.680796 24.5452087,108.106398 24.5452087,108.106398 C26.8738602,108.106398 29.1549883,111.074122 29.1549883,111.074122 C29.1549883,111.074122 24.2600677,116.913838 21.5987517,125.864878 L20.8858992,129.024069 C25.0679672,125.003281 30.8658343,117.44037 30.8658343,117.44037 Z M13.0707245,147.955528 C13.4853826,147.907662 12.7118572,147.45268 14.6603207,138.405907 C12.9019512,140.799233 10.4441848,143.155974 9.35114429,144.783436 C10.5867553,146.075832 12.6560664,148.003395 13.0707245,147.955528 Z M41.4065454,130.747264 C40.1709344,132.087526 40.7887399,131.321662 39.8382698,132.135393 C36.9393363,134.480852 35.2760138,134.480852 34.7532553,134.480852 C33.8027853,134.480852 23.9654208,133.379922 27.9573948,121.413291 C31.9018453,109.446661 38.6977058,109.446661 38.6977058,109.446661 C38.6977058,109.446661 44.4005259,110.786923 44.4005259,114.711978 C44.4005259,120.791027 38.0323768,123.232219 38.0323768,123.232219 C35.1334433,123.232219 33.9928793,121.604758 33.8503088,120.025162 C32.9473623,121.556891 31.7592748,124.093817 31.7592748,125.912745 C31.7592748,130.029266 33.6602148,130.603664 33.6602148,130.603664 C38.0323768,130.747264 42.4995859,125.912745 45.3034724,121.126092 C46.7291774,119.115698 47.6321239,117.727569 47.6321239,117.727569 C48.8677349,117.631836 49.2954464,118.589167 49.2954464,118.589167 C46.2539424,123.423685 43.4975794,128.44967 41.4065454,130.747264 Z M40.2184579,113.946114 C38.7452293,113.946114 36.8442893,115.621442 35.0383963,118.301967 C34.8958258,119.49863 35.7987723,120.216628 35.7987723,120.216628 C38.5076118,119.067832 40.2184579,113.946114 40.2184579,113.946114 Z M67.012206,117.344637 C68.247817,117.248904 68.6755285,118.206234 68.6755285,118.206234 C65.3488835,123.663018 58.7906405,132.805524 58.7906405,132.805524 C56.9847475,132.805524 54.3234315,130.316465 54.3234315,130.316465 C53.800673,129.359134 53.8481965,128.306071 54.1333375,127.253007 C50.9492629,131.608861 48.8582289,132.805524 48.8582289,132.805524 C44.2009259,132.805524 43.2504559,128.59327 43.2504559,128.59327 C44.2009259,115.190643 53.4680085,108.920129 56.8897005,108.920129 C63.780608,108.920129 61.8321445,114.568379 61.8321445,114.568379 C60.7866275,113.802514 60.1212985,111.504921 57.887694,112.845184 C46.9572889,119.49863 47.8127119,129.789933 47.8127119,129.789933 C52.4224915,127.444473 59.1708285,115.525709 59.1708285,115.525709 C59.1708285,115.525709 61.594527,115.717175 62.2123325,117.823302 C62.830138,119.929429 58.6005465,128.497537 58.6005465,128.497537 C61.2618625,126.965808 67.012206,117.344637 67.012206,117.344637 Z M82.3752876,120.040323 C78.6209311,125.59284 74.1787486,131.800327 72.4679026,133.379922 C71.7075266,134.193653 70.8996271,135.007384 70.0442041,135.821115 C70.0442041,135.821115 65.6720421,133.667121 65.2443306,132.03966 C65.2443306,132.03966 68.8085931,119.833696 73.3233256,114.13758 C73.3233256,114.13758 72.5629496,113.03665 71.5174326,111.648521 C70.3293451,114.903444 69.0937341,118.690758 65.2443306,122.711546 C65.2443306,123.971221 63.0733364,124.499903 63.2159069,123.207507 C63.2159069,123.207507 67.2403176,115.429976 69.1412576,108.824396 C69.2953414,108.271656 71.8676746,107.243351 72.5629496,107.867065 C74.6539836,109.925326 77.1252056,112.701584 77.9331051,115.09491 C77.9331051,115.09491 71.7550501,125.864878 70.4243921,131.082329 C70.4243921,131.082329 73.6084666,128.018872 78.6459576,122.227022 C80.7845151,119.594364 82.4953611,117.44037 82.4953611,117.44037 C83.7309722,117.344637 85.4155076,115.09491 85.4155076,115.09491 C84.9402726,115.812908 82.8505226,119.322325 82.3752876,120.040323 Z M99.8319328,118.301967 C97.1706168,122.657821 94.9845357,125.099014 93.1786427,126.39141 C93.7489247,128.44967 94.1766362,130.077132 94.1766362,130.077132 C94.4142537,130.79513 93.5588307,134.959518 88.8540042,134.959518 C80.8225327,134.959518 78.2562637,125.817012 78.2562637,125.817012 C78.8265457,125.051147 79.2746577,123.264567 79.9875102,122.977367 C82.2211147,123.456033 85.1946947,124.476749 88.0936282,124.763948 C88.0461047,124.572482 87.9510577,124.428882 87.9035342,124.237416 C87.8560107,124.18955 87.8560107,124.18955 87.8084872,124.18955 L87.8560107,124.18955 C87.0481112,122.035556 85.4323122,117.536103 84.8620302,115.860775 C83.6264192,118.014768 81.9630967,120.360228 79.6819687,122.753554 C79.6819687,122.753554 78.91727,123.076269 77.3878726,123.721698 C81.388492,116.853621 83.6422604,112.334607 84.1491777,110.164658 C84.9095537,106.909735 86.4778292,105.904538 87.9035342,105.713072 C88.5213397,105.665205 89.1391452,105.760938 89.6619037,105.856671 C89.7094272,105.904538 89.8044742,105.904538 89.8995212,105.952404 C92.6083607,106.766135 94.2716832,109.255194 94.2716832,109.255194 C93.9390187,111.217722 92.0856022,113.802514 92.0856022,113.802514 C91.6578907,112.127186 90.8499912,111.409188 90.1846622,111.074122 L90.1371387,111.121989 L90.1371387,111.074122 C89.6143802,110.83479 89.1866687,110.83479 89.1866687,110.83479 C89.1391452,111.696387 89.4242862,113.802514 91.0400852,119.019965 C91.4202732,120.073029 91.8479847,121.700491 92.3232197,123.327952 C95.3647237,121.317558 98.2161338,117.44037 98.2161338,117.44037 C99.4517448,117.344637 99.8319328,118.301967 99.8319328,118.301967 Z M87.5233462,130.603664 C89.6619037,129.981399 89.7094272,129.981399 89.0440982,127.779539 C87.2857287,127.300874 84.1491777,127.300874 82.5333787,127.061541 C83.3888017,128.832603 86.0501177,130.93873 87.5233462,130.603664 Z" id="years"></path>
                        <path d="M106.114028,0.344777279 C105.919892,-0.0984427912 105.365217,-0.116171594 105.132948,0.302228152 C104.058266,2.21339309 102.134238,3.40476864 99.9363405,3.40476864 L97.1629678,3.40476864 C93.488249,3.40476864 90.5068733,6.45412273 90.5068733,10.2126289 C90.5068733,10.4608322 90.5346071,10.6983981 90.5588741,10.9395098 C90.7182942,12.1798633 88.0801722,14.5420026 87.2620273,16.5949979 C87.0332241,17.1729569 87.3036279,17.8324684 87.8687026,18.0700343 C88.437244,18.311146 89.0820531,18.031031 89.3177898,17.4566177 C89.3697905,17.3289704 90.0423334,15.7581984 91.8103585,14.2441587 C92.9335744,15.8007476 95.0690714,17.2864212 97.8736445,16.9814858 C103.316388,16.5772691 107.147109,11.5848383 107.147109,5.47194705 C107.147109,3.69197525 106.772704,1.84817976 106.114028,0.344777279 Z" id="Path"></path>
                    </g>
                </g>
            </g>
        </g>
    </g>
</svg>