<?xml version="1.0" encoding="UTF-8"?>
<svg width="221px" height="19px" viewBox="0 0 221 19" version="1.1" xmlns="http://www.w3.org/2000/svg" xmlns:xlink="http://www.w3.org/1999/xlink">
    <!-- Generator: Sketch 56.3 (81716) - https://sketch.com -->
    <title>Group 2</title>
    <desc>Created with Sketch.</desc>
    <g id="Web" stroke="none" stroke-width="1" fill="none" fill-rule="evenodd">
        <g id="take9" transform="translate(-279.000000, -100.000000)" fill="#FFFFFF">
            <g id="Group-2" transform="translate(279.000000, 100.000000)">
                <g id="ucdavis" transform="translate(0.000000, 1.000000)">
                    <path d="M96.9492671,6.44156564 L95.6977147,6.13839898 C95.2718196,6.03356564 94.5838895,5.83169064 94.4348615,5.35427398 C94.075358,4.21952398 95.186358,3.96735731 95.6722881,3.98294064 C97.1484419,4.03748231 98.3180643,4.81948231 99.0858056,5.37694064 L100.487799,1.57602398 C98.9932811,0.60135731 97.3970573,0.154398976 95.655337,0.154398976 C92.3428196,0.154398976 89.0465468,2.30773231 89.0465468,6.13839898 C89.0465468,8.66856564 90.8659594,10.0051906 93.0265119,10.413899 L94.1375119,10.6363156 C94.6467496,10.7376073 95.4568685,10.8636906 95.5727007,11.589024 C95.7210224,12.5488156 95.1637566,12.8526906 94.0280363,12.8271906 C92.7560014,12.798149 91.413337,12.1110656 90.4202881,11.2950656 L90.1398895,11.055649 L88.5196517,15.3431906 C90.2387706,16.274649 92.4600643,16.820774 94.3840084,16.820774 C97.6781622,16.820774 100.993505,14.9160656 100.993505,11.0648573 C100.993505,8.32714898 99.2984,6.98910731 96.9492671,6.44156564" id="Fill-1"></path>
                    <polygon id="Fill-2" points="81.7787846 16.5813573 87.3281342 16.5813573 87.3281342 0.417898976 81.7787846 0.417898976"></polygon>
                    <polyline id="Fill-3" points="72.954351 10.1702323 70.4872671 0.417898976 64.7217916 0.417898976 70.6108685 16.578524 75.296421 16.578524 81.2017426 0.417898976 75.4207287 0.417898976 72.954351 10.1702323"></polyline>
                    <path d="M58.3432531,10.717774 L59.4493091,5.08085731 C59.5474839,5.77289898 60.5596028,10.717774 60.5596028,10.717774 L58.3432531,10.717774 Z M56.3112461,0.417898976 L51.0380573,16.578524 L56.9002951,16.578524 L57.347379,14.5505656 L61.5321692,14.5505656 L62.0837846,16.578524 L67.9516727,16.578524 L62.4581203,0.417898976 L56.3112461,0.417898976 L56.3112461,0.417898976 Z" id="Fill-4"></path>
                    <path d="M42.6020853,11.9410656 L42.2235119,11.9410656 L42.2235119,5.17506564 L42.5801902,5.17506564 C44.6185538,5.17506564 45.8411482,6.44156564 45.8411482,8.71177398 C45.8411482,10.8211906 44.4624629,11.9410656 42.6020853,11.9410656 Z M42.3230993,0.417898976 L36.6444979,0.417898976 L36.6444979,16.5728573 L43.6968405,16.578524 C48.2072321,16.578524 51.4194559,13.5178156 51.4194559,8.73444064 C51.4194559,2.79364898 47.478337,0.417898976 42.3230993,0.417898976 L42.3230993,0.417898976 Z" id="Fill-5"></path>
                    <path d="M33.1773021,13.208274 C32.4173301,15.2858156 29.6267636,15.7469406 28.1739175,15.7469406 C24.1084909,15.7469406 22.5101482,11.733524 22.5101482,8.38806564 C22.5101482,3.72227398 24.8621063,1.09435731 28.4154699,1.10852398 C29.5879175,1.11419064 31.3190433,1.69998231 32.0140363,2.22202398 C32.157414,2.33110731 32.7083231,3.78956564 32.8206238,4.09485731 C33.0494629,4.70544064 33.280421,5.39181564 33.5537566,5.51435731 C33.9930713,5.71835731 33.6399245,4.20677398 33.5678825,3.57564898 L33.2648825,0.925065643 C31.7710713,0.357690643 30.1727287,0.0764823095 28.5779175,0.0141489762 C22.259414,-0.223851024 18.1848056,2.52873231 18.1848056,9.17856564 C18.1848056,13.010649 20.4484769,16.842024 26.9979384,16.842024 C29.0624349,16.842024 31.4165119,16.5367323 33.2535818,15.618024 C33.4004909,15.5408156 33.4259175,14.9578573 33.9104349,13.031899 C34.0100224,12.6253156 34.2296797,11.8730656 34.0615818,11.688899 C33.8369804,11.436024 33.5198545,12.271149 33.1773021,13.208274" id="Fill-6"></path>
                    <path d="M18.2398965,0.40798231 C14.463344,0.730273976 12.9455189,0.44623231 12.9455189,0.44623231 C12.9455189,0.44623231 12.5182112,0.536898976 12.8699454,0.850690643 L13.9202042,1.22044064 C14.6286168,1.52714898 14.7289105,1.29906564 14.6801762,2.09664898 L14.6695818,10.6129406 C14.6695818,11.5089823 14.6286168,15.5238156 9.99603634,15.5238156 C6.63972865,15.5238156 5.55980558,12.912899 5.55980558,10.8063156 L5.52943495,2.20927398 C5.55627411,1.22044064 5.42702236,1.55264898 6.38899439,1.11985731 L7.60240697,0.763565643 C7.84325313,0.496523976 7.47456781,0.40798231 7.47456781,0.40798231 C3.30672865,0.70973231 1.50921117,0.44623231 0.273197184,0.383898976 C-0.184481138,0.357690643 0.071197184,0.72460731 0.071197184,0.72460731 L1.58902236,1.29906564 C2.09190348,1.47544064 1.93157481,1.43364898 1.93157481,2.95514898 L1.93157481,11.6733156 C1.93157481,16.842024 7.87574264,16.842024 8.48103634,16.842024 C9.75307131,16.842024 16.2905259,16.9851073 16.2905259,10.545649 L16.2968825,2.30914898 C16.2968825,1.42231564 16.2968825,1.62985731 17.1034699,1.27144064 L18.3430154,0.740190643 C18.5711482,0.473148976 18.2398965,0.40798231 18.2398965,0.40798231" id="Fill-7"></path>
                </g>
                <path d="M111.301,8.132 C109.134,8.132 107.451,6.592 107.451,4.337 C107.451,2.082 109.134,0.542 111.301,0.542 C112.786,0.542 113.699,1.312 114.249,2.192 L113.149,2.753 C112.797,2.148 112.093,1.686 111.301,1.686 C109.849,1.686 108.771,2.797 108.771,4.337 C108.771,5.877 109.849,6.988 111.301,6.988 C112.093,6.988 112.797,6.537 113.149,5.921 L114.249,6.482 C113.688,7.362 112.786,8.132 111.301,8.132 Z M117.3818,8.132 C115.6988,8.132 114.6538,6.867 114.6538,5.338 C114.6538,3.82 115.6988,2.555 117.3818,2.555 C119.0868,2.555 120.1208,3.82 120.1208,5.338 C120.1208,6.867 119.0868,8.132 117.3818,8.132 Z M117.3818,7.109 C118.3718,7.109 118.9218,6.284 118.9218,5.338 C118.9218,4.403 118.3718,3.578 117.3818,3.578 C116.4028,3.578 115.8528,4.403 115.8528,5.338 C115.8528,6.284 116.4028,7.109 117.3818,7.109 Z M122.175599,8 L121.020599,8 L121.020599,0.663 L122.175599,0.663 L122.175599,8 Z M124.560399,8 L123.405399,8 L123.405399,0.663 L124.560399,0.663 L124.560399,8 Z M128.243199,8.132 C126.648199,8.132 125.460199,7.021 125.460199,5.338 C125.460199,3.798 126.582199,2.555 128.155199,2.555 C129.750199,2.555 130.773199,3.776 130.773199,5.448 L130.773199,5.723 L126.670199,5.723 C126.758199,6.526 127.363199,7.186 128.364199,7.186 C128.881199,7.186 129.497199,6.977 129.871199,6.603 L130.399199,7.362 C129.871199,7.868 129.090199,8.132 128.243199,8.132 Z M129.651199,4.909 C129.629199,4.282 129.200199,3.501 128.155199,3.501 C127.165199,3.501 126.714199,4.26 126.659199,4.909 L129.651199,4.909 Z M133.806999,10.156 C132.904999,10.156 132.233999,9.958 131.584999,9.364 L132.123999,8.528 C132.552999,9.023 133.102999,9.21 133.806999,9.21 C134.565999,9.21 135.379999,8.858 135.379999,7.769 L135.379999,7.131 C134.972999,7.659 134.367999,8.011 133.674999,8.011 C132.321999,8.011 131.320999,7.032 131.320999,5.283 C131.320999,3.567 132.310999,2.555 133.674999,2.555 C134.345999,2.555 134.950999,2.863 135.379999,3.424 L135.379999,2.687 L136.534999,2.687 L136.534999,7.725 C136.534999,9.639 135.115999,10.156 133.806999,10.156 Z M134.015999,6.988 C134.554999,6.988 135.126999,6.669 135.379999,6.273 L135.379999,4.293 C135.126999,3.897 134.554999,3.578 134.015999,3.578 C133.102999,3.578 132.519999,4.26 132.519999,5.283 C132.519999,6.306 133.102999,6.988 134.015999,6.988 Z M140.217798,8.132 C138.622798,8.132 137.434798,7.021 137.434798,5.338 C137.434798,3.798 138.556798,2.555 140.129798,2.555 C141.724798,2.555 142.747798,3.776 142.747798,5.448 L142.747798,5.723 L138.644798,5.723 C138.732798,6.526 139.337798,7.186 140.338798,7.186 C140.855798,7.186 141.471798,6.977 141.845798,6.603 L142.373798,7.362 C141.845798,7.868 141.064798,8.132 140.217798,8.132 Z M141.625798,4.909 C141.603798,4.282 141.174798,3.501 140.129798,3.501 C139.139798,3.501 138.688798,4.26 138.633798,4.909 L141.625798,4.909 Z M148.584398,8.132 C146.901398,8.132 145.856398,6.867 145.856398,5.338 C145.856398,3.82 146.901398,2.555 148.584398,2.555 C150.289398,2.555 151.323398,3.82 151.323398,5.338 C151.323398,6.867 150.289398,8.132 148.584398,8.132 Z M148.584398,7.109 C149.574398,7.109 150.124398,6.284 150.124398,5.338 C150.124398,4.403 149.574398,3.578 148.584398,3.578 C147.605398,3.578 147.055398,4.403 147.055398,5.338 C147.055398,6.284 147.605398,7.109 148.584398,7.109 Z M153.653197,8 L152.498197,8 L152.498197,3.699 L151.618197,3.699 L151.618197,2.687 L152.498197,2.687 L152.498197,2.39 C152.498197,1.235 153.169197,0.553 154.181197,0.553 C154.654197,0.553 155.127197,0.674 155.457197,1.015 L155.006197,1.73 C154.852197,1.587 154.654197,1.499 154.390197,1.499 C153.939197,1.499 153.653197,1.796 153.653197,2.39 L153.653197,2.687 L154.731197,2.687 L154.731197,3.699 L153.653197,3.699 L153.653197,8 Z M164.538797,8 L163.075797,8 L162.536797,6.592 L159.170797,6.592 L158.631797,8 L157.168797,8 L160.050797,0.663 L161.656797,0.663 L164.538797,8 Z M162.173797,5.459 L160.853797,1.961 L159.533797,5.459 L162.173797,5.459 Z M167.198596,10.156 C166.296596,10.156 165.625596,9.958 164.976596,9.364 L165.515596,8.528 C165.944596,9.023 166.494596,9.21 167.198596,9.21 C167.957596,9.21 168.771596,8.858 168.771596,7.769 L168.771596,7.131 C168.364596,7.659 167.759596,8.011 167.066596,8.011 C165.713596,8.011 164.712596,7.032 164.712596,5.283 C164.712596,3.567 165.702596,2.555 167.066596,2.555 C167.737596,2.555 168.342596,2.863 168.771596,3.424 L168.771596,2.687 L169.926596,2.687 L169.926596,7.725 C169.926596,9.639 168.507596,10.156 167.198596,10.156 Z M167.407596,6.988 C167.946596,6.988 168.518596,6.669 168.771596,6.273 L168.771596,4.293 C168.518596,3.897 167.946596,3.578 167.407596,3.578 C166.494596,3.578 165.911596,4.26 165.911596,5.283 C165.911596,6.306 166.494596,6.988 167.407596,6.988 Z M172.311396,8 L171.156396,8 L171.156396,2.687 L172.311396,2.687 L172.311396,3.468 C172.707396,2.962 173.345396,2.566 174.038396,2.566 L174.038396,3.71 C173.939396,3.688 173.818396,3.677 173.675396,3.677 C173.191396,3.677 172.542396,4.007 172.311396,4.381 L172.311396,8 Z M175.279196,2.038 C174.894196,2.038 174.564196,1.719 174.564196,1.323 C174.564196,0.927 174.894196,0.608 175.279196,0.608 C175.675196,0.608 175.994196,0.927 175.994196,1.323 C175.994196,1.719 175.675196,2.038 175.279196,2.038 Z M175.862196,8 L174.707196,8 L174.707196,2.687 L175.862196,2.687 L175.862196,8 Z M179.511996,8.132 C177.894996,8.132 176.761996,6.955 176.761996,5.338 C176.761996,3.732 177.894996,2.555 179.511996,2.555 C180.545996,2.555 181.172996,2.995 181.546996,3.501 L180.787996,4.205 C180.490996,3.787 180.083996,3.578 179.566996,3.578 C178.598996,3.578 177.960996,4.304 177.960996,5.338 C177.960996,6.372 178.598996,7.109 179.566996,7.109 C180.083996,7.109 180.490996,6.889 180.787996,6.482 L181.546996,7.186 C181.172996,7.692 180.545996,8.132 179.511996,8.132 Z M187.033795,8 L185.878795,8 L185.878795,7.296 C185.493795,7.725 184.833795,8.132 183.997795,8.132 C182.853795,8.132 182.292795,7.538 182.292795,6.449 L182.292795,2.687 L183.447795,2.687 L183.447795,6.031 C183.447795,6.856 183.865795,7.109 184.514795,7.109 C185.097795,7.109 185.603795,6.779 185.878795,6.416 L185.878795,2.687 L187.033795,2.687 L187.033795,8 Z M189.418595,8 L188.263595,8 L188.263595,0.663 L189.418595,0.663 L189.418595,8 Z M192.243395,8.132 C191.352395,8.132 190.879395,7.648 190.879395,6.768 L190.879395,3.699 L189.999395,3.699 L189.999395,2.687 L190.879395,2.687 L190.879395,1.235 L192.034395,1.235 L192.034395,2.687 L193.112395,2.687 L193.112395,3.699 L192.034395,3.699 L192.034395,6.482 C192.034395,6.845 192.210395,7.109 192.540395,7.109 C192.760395,7.109 192.969395,7.021 193.057395,6.922 L193.332395,7.791 C193.123395,7.989 192.782395,8.132 192.243395,8.132 Z M198.632194,8 L197.477194,8 L197.477194,7.296 C197.092194,7.725 196.432194,8.132 195.596194,8.132 C194.452194,8.132 193.891194,7.538 193.891194,6.449 L193.891194,2.687 L195.046194,2.687 L195.046194,6.031 C195.046194,6.856 195.464194,7.109 196.113194,7.109 C196.696194,7.109 197.202194,6.779 197.477194,6.416 L197.477194,2.687 L198.632194,2.687 L198.632194,8 Z M201.016994,8 L199.861994,8 L199.861994,2.687 L201.016994,2.687 L201.016994,3.468 C201.412994,2.962 202.050994,2.566 202.743994,2.566 L202.743994,3.71 C202.644994,3.688 202.523994,3.677 202.380994,3.677 C201.896994,3.677 201.247994,4.007 201.016994,4.381 L201.016994,8 Z M207.812794,8 L206.657794,8 L206.657794,7.428 C206.261794,7.879 205.645794,8.132 204.941794,8.132 C204.072794,8.132 203.093794,7.549 203.093794,6.372 C203.093794,5.151 204.072794,4.645 204.941794,4.645 C205.656794,4.645 206.272794,4.876 206.657794,5.327 L206.657794,4.535 C206.657794,3.919 206.151794,3.545 205.414794,3.545 C204.820794,3.545 204.303794,3.765 203.841794,4.216 L203.368794,3.413 C203.984794,2.83 204.754794,2.555 205.601794,2.555 C206.778794,2.555 207.812794,3.05 207.812794,4.48 L207.812794,8 Z M205.392794,7.34 C205.898794,7.34 206.393794,7.153 206.657794,6.79 L206.657794,5.987 C206.393794,5.624 205.898794,5.437 205.392794,5.437 C204.743794,5.437 204.259794,5.811 204.259794,6.394 C204.259794,6.966 204.743794,7.34 205.392794,7.34 Z M210.197594,8 L209.042594,8 L209.042594,0.663 L210.197594,0.663 L210.197594,8 Z M220.137193,8 L218.630193,8 C218.454193,7.846 218.223193,7.615 217.981193,7.362 C217.431193,7.824 216.749193,8.132 215.924193,8.132 C214.615193,8.132 213.559193,7.439 213.559193,6.042 C213.559193,4.92 214.318193,4.337 215.154193,3.897 C214.846193,3.347 214.637193,2.797 214.637193,2.291 C214.637193,1.301 215.484193,0.553 216.628193,0.553 C217.629193,0.553 218.443193,1.103 218.443193,2.06 C218.443193,3.171 217.519193,3.655 216.606193,4.095 C216.859193,4.436 217.123193,4.755 217.332193,4.997 C217.574193,5.294 217.816193,5.58 218.058193,5.844 C218.399193,5.316 218.652193,4.744 218.784193,4.315 L219.730193,4.744 C219.466193,5.327 219.136193,5.987 218.707193,6.559 C219.147193,7.032 219.609193,7.494 220.137193,8 Z M216.067193,7.208 C216.540193,7.208 216.969193,6.999 217.332193,6.691 C216.969193,6.295 216.628193,5.921 216.430193,5.679 C216.166193,5.36 215.880193,4.997 215.616193,4.623 C215.132193,4.942 214.791193,5.338 214.791193,5.943 C214.791193,6.746 215.396193,7.208 216.067193,7.208 Z M215.803193,2.313 C215.803193,2.643 215.946193,3.039 216.166193,3.424 C216.859193,3.094 217.420193,2.742 217.420193,2.115 C217.420193,1.664 217.101193,1.411 216.683193,1.411 C216.188193,1.411 215.803193,1.785 215.803193,2.313 Z M112.808,18 L107.781,18 L107.781,10.663 L112.808,10.663 L112.808,11.796 L109.068,11.796 L109.068,13.699 L112.731,13.699 L112.731,14.832 L109.068,14.832 L109.068,16.867 L112.808,16.867 L112.808,18 Z M118.5698,18 L117.4148,18 L117.4148,14.678 C117.4148,13.853 116.9968,13.578 116.3478,13.578 C115.7538,13.578 115.2478,13.93 114.9838,14.293 L114.9838,18 L113.8288,18 L113.8288,12.687 L114.9838,12.687 L114.9838,13.413 C115.3358,12.995 116.0178,12.555 116.8538,12.555 C117.9978,12.555 118.5698,13.171 118.5698,14.26 L118.5698,18 Z M122.439599,18 L121.196599,18 L119.029599,12.687 L120.261599,12.687 L121.812599,16.669 L123.363599,12.687 L124.606599,12.687 L122.439599,18 Z M125.638399,12.038 C125.253399,12.038 124.923399,11.719 124.923399,11.323 C124.923399,10.927 125.253399,10.608 125.638399,10.608 C126.034399,10.608 126.353399,10.927 126.353399,11.323 C126.353399,11.719 126.034399,12.038 125.638399,12.038 Z M126.221399,18 L125.066399,18 L125.066399,12.687 L126.221399,12.687 L126.221399,18 Z M128.606199,18 L127.451199,18 L127.451199,12.687 L128.606199,12.687 L128.606199,13.468 C129.002199,12.962 129.640199,12.566 130.333199,12.566 L130.333199,13.71 C130.234199,13.688 130.113199,13.677 129.970199,13.677 C129.486199,13.677 128.837199,14.007 128.606199,14.381 L128.606199,18 Z M133.399999,18.132 C131.716999,18.132 130.671999,16.867 130.671999,15.338 C130.671999,13.82 131.716999,12.555 133.399999,12.555 C135.104999,12.555 136.138999,13.82 136.138999,15.338 C136.138999,16.867 135.104999,18.132 133.399999,18.132 Z M133.399999,17.109 C134.389999,17.109 134.939999,16.284 134.939999,15.338 C134.939999,14.403 134.389999,13.578 133.399999,13.578 C132.420999,13.578 131.870999,14.403 131.870999,15.338 C131.870999,16.284 132.420999,17.109 133.399999,17.109 Z M141.779798,18 L140.624798,18 L140.624798,14.678 C140.624798,13.853 140.206798,13.578 139.557798,13.578 C138.963798,13.578 138.457798,13.93 138.193798,14.293 L138.193798,18 L137.038798,18 L137.038798,12.687 L138.193798,12.687 L138.193798,13.413 C138.545798,12.995 139.227798,12.555 140.063798,12.555 C141.207798,12.555 141.779798,13.171 141.779798,14.26 L141.779798,18 Z M150.676598,18 L149.521598,18 L149.521598,14.535 C149.521598,13.963 149.268598,13.578 148.652598,13.578 C148.135598,13.578 147.651598,13.941 147.420598,14.282 L147.420598,18 L146.265598,18 L146.265598,14.535 C146.265598,13.963 146.012598,13.578 145.385598,13.578 C144.879598,13.578 144.406598,13.941 144.164598,14.293 L144.164598,18 L143.009598,18 L143.009598,12.687 L144.164598,12.687 L144.164598,13.413 C144.384598,13.083 145.088598,12.555 145.891598,12.555 C146.683598,12.555 147.167598,12.951 147.343598,13.534 C147.651598,13.05 148.355598,12.555 149.147598,12.555 C150.126598,12.555 150.676598,13.083 150.676598,14.161 L150.676598,18 Z M154.359398,18.132 C152.764398,18.132 151.576398,17.021 151.576398,15.338 C151.576398,13.798 152.698398,12.555 154.271398,12.555 C155.866398,12.555 156.889398,13.776 156.889398,15.448 L156.889398,15.723 L152.786398,15.723 C152.874398,16.526 153.479398,17.186 154.480398,17.186 C154.997398,17.186 155.613398,16.977 155.987398,16.603 L156.515398,17.362 C155.987398,17.868 155.206398,18.132 154.359398,18.132 Z M155.767398,14.909 C155.745398,14.282 155.316398,13.501 154.271398,13.501 C153.281398,13.501 152.830398,14.26 152.775398,14.909 L155.767398,14.909 Z M162.508197,18 L161.353197,18 L161.353197,14.678 C161.353197,13.853 160.935197,13.578 160.286197,13.578 C159.692197,13.578 159.186197,13.93 158.922197,14.293 L158.922197,18 L157.767197,18 L157.767197,12.687 L158.922197,12.687 L158.922197,13.413 C159.274197,12.995 159.956197,12.555 160.792197,12.555 C161.936197,12.555 162.508197,13.171 162.508197,14.26 L162.508197,18 Z M165.332997,18.132 C164.441997,18.132 163.968997,17.648 163.968997,16.768 L163.968997,13.699 L163.088997,13.699 L163.088997,12.687 L163.968997,12.687 L163.968997,11.235 L165.123997,11.235 L165.123997,12.687 L166.201997,12.687 L166.201997,13.699 L165.123997,13.699 L165.123997,16.482 C165.123997,16.845 165.299997,17.109 165.629997,17.109 C165.849997,17.109 166.058997,17.021 166.146997,16.922 L166.421997,17.791 C166.212997,17.989 165.871997,18.132 165.332997,18.132 Z M171.380797,18 L170.225797,18 L170.225797,17.428 C169.829797,17.879 169.213797,18.132 168.509797,18.132 C167.640797,18.132 166.661797,17.549 166.661797,16.372 C166.661797,15.151 167.640797,14.645 168.509797,14.645 C169.224797,14.645 169.840797,14.876 170.225797,15.327 L170.225797,14.535 C170.225797,13.919 169.719797,13.545 168.982797,13.545 C168.388797,13.545 167.871797,13.765 167.409797,14.216 L166.936797,13.413 C167.552797,12.83 168.322797,12.555 169.169797,12.555 C170.346797,12.555 171.380797,13.05 171.380797,14.48 L171.380797,18 Z M168.960797,17.34 C169.466797,17.34 169.961797,17.153 170.225797,16.79 L170.225797,15.987 C169.961797,15.624 169.466797,15.437 168.960797,15.437 C168.311797,15.437 167.827797,15.811 167.827797,16.394 C167.827797,16.966 168.311797,17.34 168.960797,17.34 Z M173.765596,18 L172.610596,18 L172.610596,10.663 L173.765596,10.663 L173.765596,18 Z M180.097196,18.132 C178.744196,18.132 177.765196,17.659 177.116196,16.966 L177.831196,15.976 C178.337196,16.515 179.129196,16.988 180.152196,16.988 C181.208196,16.988 181.626196,16.471 181.626196,15.987 C181.626196,14.447 177.347196,15.404 177.347196,12.698 C177.347196,11.488 178.414196,10.553 180.020196,10.553 C181.164196,10.553 182.088196,10.916 182.770196,11.576 L182.033196,12.533 C181.461196,11.961 180.680196,11.697 179.910196,11.697 C179.151196,11.697 178.667196,12.06 178.667196,12.61 C178.667196,13.974 182.935196,13.127 182.935196,15.866 C182.935196,17.087 182.077196,18.132 180.097196,18.132 Z M186.243996,18.132 C184.626996,18.132 183.493996,16.955 183.493996,15.338 C183.493996,13.732 184.626996,12.555 186.243996,12.555 C187.277996,12.555 187.904996,12.995 188.278996,13.501 L187.519996,14.205 C187.222996,13.787 186.815996,13.578 186.298996,13.578 C185.330996,13.578 184.692996,14.304 184.692996,15.338 C184.692996,16.372 185.330996,17.109 186.298996,17.109 C186.815996,17.109 187.222996,16.889 187.519996,16.482 L188.278996,17.186 C187.904996,17.692 187.277996,18.132 186.243996,18.132 Z M189.596795,12.038 C189.211795,12.038 188.881795,11.719 188.881795,11.323 C188.881795,10.927 189.211795,10.608 189.596795,10.608 C189.992795,10.608 190.311795,10.927 190.311795,11.323 C190.311795,11.719 189.992795,12.038 189.596795,12.038 Z M190.179795,18 L189.024795,18 L189.024795,12.687 L190.179795,12.687 L190.179795,18 Z M193.862595,18.132 C192.267595,18.132 191.079595,17.021 191.079595,15.338 C191.079595,13.798 192.201595,12.555 193.774595,12.555 C195.369595,12.555 196.392595,13.776 196.392595,15.448 L196.392595,15.723 L192.289595,15.723 C192.377595,16.526 192.982595,17.186 193.983595,17.186 C194.500595,17.186 195.116595,16.977 195.490595,16.603 L196.018595,17.362 C195.490595,17.868 194.709595,18.132 193.862595,18.132 Z M195.270595,14.909 C195.248595,14.282 194.819595,13.501 193.774595,13.501 C192.784595,13.501 192.333595,14.26 192.278595,14.909 L195.270595,14.909 Z M202.011395,18 L200.856395,18 L200.856395,14.678 C200.856395,13.853 200.438395,13.578 199.789395,13.578 C199.195395,13.578 198.689395,13.93 198.425395,14.293 L198.425395,18 L197.270395,18 L197.270395,12.687 L198.425395,12.687 L198.425395,13.413 C198.777395,12.995 199.459395,12.555 200.295395,12.555 C201.439395,12.555 202.011395,13.171 202.011395,14.26 L202.011395,18 Z M205.661194,18.132 C204.044194,18.132 202.911194,16.955 202.911194,15.338 C202.911194,13.732 204.044194,12.555 205.661194,12.555 C206.695194,12.555 207.322194,12.995 207.696194,13.501 L206.937194,14.205 C206.640194,13.787 206.233194,13.578 205.716194,13.578 C204.748194,13.578 204.110194,14.304 204.110194,15.338 C204.110194,16.372 204.748194,17.109 205.716194,17.109 C206.233194,17.109 206.640194,16.889 206.937194,16.482 L207.696194,17.186 C207.322194,17.692 206.695194,18.132 205.661194,18.132 Z M210.894994,18.132 C209.299994,18.132 208.111994,17.021 208.111994,15.338 C208.111994,13.798 209.233994,12.555 210.806994,12.555 C212.401994,12.555 213.424994,13.776 213.424994,15.448 L213.424994,15.723 L209.321994,15.723 C209.409994,16.526 210.014994,17.186 211.015994,17.186 C211.532994,17.186 212.148994,16.977 212.522994,16.603 L213.050994,17.362 C212.522994,17.868 211.741994,18.132 210.894994,18.132 Z M212.302994,14.909 C212.280994,14.282 211.851994,13.501 210.806994,13.501 C209.816994,13.501 209.365994,14.26 209.310994,14.909 L212.302994,14.909 Z M216.117794,18.132 C215.215794,18.132 214.390794,17.846 213.840794,17.307 L214.368794,16.471 C214.742794,16.856 215.479794,17.219 216.172794,17.219 C216.865794,17.219 217.217794,16.922 217.217794,16.504 C217.217794,15.459 214.005794,16.207 214.005794,14.172 C214.005794,13.303 214.753794,12.555 216.095794,12.555 C216.997794,12.555 217.679794,12.874 218.163794,13.303 L217.679794,14.117 C217.360794,13.754 216.766794,13.479 216.106794,13.479 C215.501794,13.479 215.116794,13.754 215.116794,14.128 C215.116794,15.074 218.328794,14.37 218.328794,16.482 C218.328794,17.417 217.547794,18.132 216.117794,18.132 Z" id="CollegeofAgricultural&amp;EnvironmentalSciences" fill-rule="nonzero"></path>
            </g>
        </g>
    </g>
</svg>