<?xml version="1.0" encoding="UTF-8"?>
<svg width="20px" height="20px" viewBox="0 0 20 20" version="1.1" xmlns="http://www.w3.org/2000/svg" xmlns:xlink="http://www.w3.org/1999/xlink">
    <!-- Generator: Sketch 58 (84663) - https://sketch.com -->
    <title>github-footer</title>
    <desc>Created with Sketch.</desc>
    <g id="Web" stroke="none" stroke-width="1" fill="none" fill-rule="evenodd">
        <g id="event1-copy" transform="translate(-1241.000000, -2044.000000)" fill="#C7C8CC" fill-rule="nonzero">
            <g id="footer" transform="translate(1207.000000, 2044.000000)">
                <path d="M40.6895161,16.1039708 C40.6895161,16.1866825 40.5967742,16.2528518 40.4798387,16.2528518 C40.3467742,16.2652586 40.2540323,16.1990892 40.2540323,16.1039708 C40.2540323,16.021259 40.3467742,15.9550897 40.4637097,15.9550897 C40.5846774,15.9426829 40.6895161,16.0088523 40.6895161,16.1039708 Z M39.4354839,15.9178694 C39.4072581,16.0005811 39.4879032,16.0956996 39.608871,16.1205131 C39.7137097,16.161869 39.8346774,16.1205131 39.858871,16.0378014 C39.8830645,15.9550897 39.8064516,15.8599712 39.6854839,15.8227509 C39.5806452,15.7938018 39.4637097,15.8351577 39.4354839,15.9178694 Z M41.2177419,15.8475644 C41.1008065,15.8765135 41.0201613,15.9550897 41.0322581,16.0502081 C41.0443548,16.1329199 41.1491935,16.1866825 41.2701613,16.1577334 C41.3870968,16.1287843 41.4677419,16.0502081 41.4556452,15.9674964 C41.4435484,15.8889203 41.3346774,15.8351577 41.2177419,15.8475644 Z M43.8709677,0 C38.2782258,0 34,4.35477175 34,10.0908291 C34,14.6771937 36.8145161,18.6018645 40.8346774,19.9831501 C41.3508065,20.0782686 41.5322581,19.7515573 41.5322581,19.4827443 C41.5322581,19.226338 41.5201613,17.8119677 41.5201613,16.9434947 C41.5201613,16.9434947 38.6975806,17.5638325 38.1048387,15.7110901 C38.1048387,15.7110901 37.6451613,14.5076347 36.983871,14.1974657 C36.983871,14.1974657 36.0604839,13.5481788 37.0483871,13.5605855 C37.0483871,13.5605855 38.0524194,13.6432973 38.6048387,14.6275667 C39.4879032,16.2239027 40.9677419,15.7648527 41.5443548,15.4919041 C41.6370968,14.8302104 41.8991935,14.3711603 42.1895161,14.0982117 C39.9354839,13.8418054 37.6612903,13.5068229 37.6612903,9.52838947 C37.6612903,8.3911034 37.9677419,7.82039258 38.6129032,7.09252949 C38.5080645,6.82371642 38.1653226,5.71537945 38.7177419,4.28446679 C39.5604839,4.01565372 41.5,5.40107494 41.5,5.40107494 C42.3064516,5.16948214 43.1733871,5.04955015 44.0322581,5.04955015 C44.891129,5.04955015 45.7580645,5.16948214 46.5645161,5.40107494 C46.5645161,5.40107494 48.5040323,4.01151814 49.3467742,4.28446679 C49.8991935,5.71951504 49.5564516,6.82371642 49.4516129,7.09252949 C50.0967742,7.82452816 50.4919355,8.39523899 50.4919355,9.52838947 C50.4919355,13.5192297 48.1169355,13.8376698 45.8629032,14.0982117 C46.233871,14.424923 46.5483871,15.0452608 46.5483871,16.0171235 C46.5483871,17.4108158 46.5362903,19.1353551 46.5362903,19.4744731 C46.5362903,19.7432862 46.7217742,20.0699974 47.233871,19.974879 C51.266129,18.6018645 54,14.6771937 54,10.0908291 C54,4.35477175 49.4637097,0 43.8709677,0 Z M37.9193548,14.2636351 C37.8669355,14.304991 37.8790323,14.4001094 37.9475806,14.4786856 C38.0120968,14.5448549 38.1048387,14.573804 38.1572581,14.5200414 C38.2096774,14.4786856 38.1975806,14.3835671 38.1290323,14.304991 C38.0645161,14.2388216 37.9717742,14.2098725 37.9193548,14.2636351 Z M37.483871,13.9286527 C37.4556452,13.9824153 37.4959677,14.0485847 37.5766129,14.0899405 C37.641129,14.1312964 37.7217742,14.1188896 37.75,14.0609914 C37.7782258,14.0072288 37.7379032,13.9410594 37.6572581,13.8997036 C37.5766129,13.8748901 37.5120968,13.8872968 37.483871,13.9286527 Z M38.7903226,15.4009212 C38.7258065,15.4546838 38.75,15.5787514 38.8427419,15.6573275 C38.9354839,15.752446 39.0524194,15.7648527 39.1048387,15.6986834 C39.1572581,15.6449207 39.1330645,15.5208532 39.0524194,15.442277 C38.9637097,15.3471586 38.8427419,15.3347518 38.7903226,15.4009212 Z M38.3306452,14.7929901 C38.266129,14.8343459 38.266129,14.9418712 38.3306452,15.0369896 C38.3951613,15.1321081 38.5040323,15.173464 38.5564516,15.1321081 C38.6209677,15.0783455 38.6209677,14.9708203 38.5564516,14.8757018 C38.5,14.7805833 38.3951613,14.7392275 38.3306452,14.7929901 Z" id="github-footer"></path>
            </g>
        </g>
    </g>
</svg>