<?xml version="1.0" encoding="UTF-8"?>
<svg width="81px" height="90px" viewBox="0 0 81 90" version="1.1" xmlns="http://www.w3.org/2000/svg" xmlns:xlink="http://www.w3.org/1999/xlink">
    <!-- Generator: Sketch 57.1 (83088) - https://sketch.com -->
    <title>roots</title>
    <desc>Created with Sketch.</desc>
    <g id="Web" stroke="none" stroke-width="1" fill="none" fill-rule="evenodd">
        <g id="take9-copy-4" transform="translate(-257.000000, -2955.000000)" fill="#DAAA00">
            <path d="M336.208496,3025.25393 C334.978888,3024.39302 334.926768,3013.06909 327.214294,3008.00309 C319.501821,3002.93709 314.098511,3002.05544 313.695146,3002.37949 C313.291782,3002.70355 311.456824,3005.51807 319.342017,3011.43232 C324.598812,3015.37515 327.222904,3020.37388 327.214294,3026.42851 C326.427101,3037.91425 325.698774,3043.0934 325.029313,3041.96598 C324.025122,3040.27484 325.134507,3024.56799 318.872864,3018.03583 C312.611221,3011.50368 308.66197,3008.86583 307.355457,3008.00309 C307.657118,3010.19671 307.101426,3014.15965 309.768182,3020.91055 C312.766926,3028.50188 316.957812,3042.81111 315.966699,3041.96598 C313.060675,3039.48798 308.796584,3025.53314 305.137439,3023.67381 C301.611388,3021.8821 288.799628,3039.07525 283.108833,3042.84342 C281.918328,3043.63193 280.647184,3044.30069 279.219003,3044.73346 C280.098972,3043.8147 281.025627,3042.93306 281.849006,3041.96598 C282.794053,3040.85534 283.869256,3039.77762 284.505182,3038.49892 C287.672079,3032.12993 290.849587,3025.75954 293.743439,3019.2659 C295.27914,3015.81985 296.350212,3008.10968 296.125269,3007.49274 C294.077431,3009.6951 293.299918,3011.3451 291.276839,3013.56987 C286.355663,3018.97949 283.948731,3017.88915 279.219003,3023.67381 C274.489274,3029.45847 272.751515,3034.51927 270.356677,3039.15613 C268.676367,3042.40954 269.289645,3030.53541 271.242694,3026.09637 C273.25587,3021.51868 276.613758,3017.89406 280.054407,3014.37098 C282.59033,3011.77437 285.318658,3009.36192 287.955027,3006.86125 C288.32286,3006.51251 288.658153,3006.12946 288.824386,3005.44879 C288.329226,3005.62106 287.836896,3005.79963 287.338908,3005.9663 C282.607307,3007.54892 277.863681,3009.09792 273.144813,3010.71906 C265.437305,3013.36819 261.33102,3019.09013 259.633331,3026.6874 C258.872908,3030.08933 258.481732,3033.57249 257.958985,3036.80146 C255.502288,3033.71605 258.172832,3013.78737 261.383342,3009.73937 C264.593853,3005.69138 270.334572,3003.35842 276.139819,3002.37949 C277.821946,3002.09588 279.509732,3001.82768 281.176297,3001.46984 C285.218211,3000.6015 291.933986,2994.91213 293.743439,2991.68457 C295.482627,2988.58469 296.568148,2976.48297 297,2955.37939 L302,2955.37939 C301.861669,2961.47895 302.473323,2969.29861 303.834961,2978.83838 C305.877418,2993.14803 327.465194,3000.81495 333.346973,3007.49274 C339.228752,3014.17054 337.438104,3026.11485 336.208496,3025.25393 Z" id="roots"></path>
        </g>
    </g>
</svg>