<?xml version="1.0" encoding="UTF-8"?>
<svg width="136px" height="188px" viewBox="0 0 136 188" version="1.1" xmlns="http://www.w3.org/2000/svg" xmlns:xlink="http://www.w3.org/1999/xlink">
    <!-- Generator: Sketch 58 (84663) - https://sketch.com -->
    <title>tree copy</title>
    <desc>Created with Sketch.</desc>
    <g id="Web" stroke="none" stroke-width="1" fill="none" fill-rule="evenodd">
        <g id="tree-copy" transform="translate(-3.000000, -1.000000)" fill="#DAAA00">
            <g id="leaves" transform="translate(0.376638, 0.631827)">
                <path d="M39.8503624,52.4865297 C38.0970692,43.4740319 32.2362274,38.0164797 25.4338293,39.0630556 C25.2128443,46.1288652 33.234671,53.5985166 39.8503624,52.4865297 Z" id="leaf35" transform="translate(32.639862, 45.766173) rotate(189.000000) translate(-32.639862, -45.766173) "></path>
                <path d="M44.0678299,71.4946949 C39.2312736,77.2434241 39.5571934,84.9015992 44.8436438,89.7106949 C49.7113887,83.1006352 49.2490192,76.4514241 44.0678299,71.4946949 Z" id="leaf34"></path>
                <path d="M77.0413624,90.7054888 C85.979307,91.7192788 91.7200536,88.6610237 93.3656802,82.0926644 C86.6796456,79.792219 79.0381732,83.778487 77.0413624,90.7054888" id="leaf33"></path>
                <path d="M26.9473624,67.6581396 C25.0895501,58.3949793 18.9800605,53.1788532 11.7721509,54.2545373 C11.5379923,61.5168666 19.9372896,68.8010539 26.9473624,67.6581396 Z" id="leaf32" transform="translate(19.357362, 60.946173) rotate(12.000000) translate(-19.357362, -60.946173) "></path>
                <path d="M117.662684,67.2737326 C124.399737,69.387623 132.942998,61.9570669 132.841793,54.0720134 C124.731557,53.2063389 118.919176,58.2616135 117.662684,67.2737326" id="leaf31" transform="translate(125.252684, 60.807307) rotate(1.000000) translate(-125.252684, -60.807307) "></path>
                <path d="M21.252,88.8253579 C13.4995257,82.9614509 8.71765325,82.5150051 1.518,89.3697381 C7.03264058,95.4106024 16.6577445,95.0978877 21.252,88.8253579 Z" id="leaf30" transform="translate(11.385000, 89.024325) rotate(31.000000) translate(-11.385000, -89.024325) "></path>
                <path d="M57.3301654,31.0111452 C56.7834276,38.8080746 66.2187142,47.3189122 74.179568,46.2105649 C72.8661794,36.9419177 65.4513867,30.2533355 57.3301654,31.0111452" id="leaf29" transform="translate(65.743516, 38.630532) rotate(45.000000) translate(-65.743516, -38.630532) "></path>
                <path d="M60.75181,104.465491 C65.3813017,95.0645712 60.2249614,83.9804878 51.5080128,80.1774911 C51.1908523,81.9009625 50.7743966,83.5682471 50.5956653,85.2630144 C50.2574776,88.4662772 50.0174169,91.7941284 51.5459786,94.6859205 C53.6930908,98.7484761 57.082561,101.672637 60.75181,104.465491" id="leaf28"></path>
                <path d="M94.3562486,57.7543608 C100.772974,60.6174225 108.120778,57.7624657 111.5115,51.0097196 C103.950549,47.9642973 96.8761142,50.7841328 94.3562486,57.7543608 Z" id="leaf27"></path>
                <path d="M139.714701,86.2525019 C137.49527,80.0326541 128.166895,76.8933498 122.958,80.6135064 C126.570665,86.9177805 134.304839,89.8848552 139.714701,86.2525019 Z" id="leaf26" transform="translate(131.336350, 83.421497) rotate(-61.000000) translate(-131.336350, -83.421497) "></path>
                <path d="M54.9336131,72.7720953 C53.3069329,64.210602 47.869328,59.0261572 41.5581607,60.0203603 C41.353134,66.7325818 48.7956696,73.828436 54.9336131,72.7720953 Z" id="leaf25"></path>
                <path d="M120.309359,39.6778764 C112.46286,33.7916809 105.014911,33.4945007 97.868751,40.2931746 C103.610174,46.1435734 115.609986,45.8146489 120.309359,39.6778764 Z" id="leaf24" transform="translate(109.089055, 39.857818) rotate(-34.000000) translate(-109.089055, -39.857818) "></path>
                <path d="M63.975301,30.973103 C55.0840456,25.109196 49.5997515,24.6627502 41.3425225,31.5174832 C47.6672229,37.5583475 58.7061834,37.2456328 63.975301,30.973103 Z" id="leaf23" transform="translate(52.658912, 31.172070) rotate(-106.000000) translate(-52.658912, -31.172070) "></path>
                <path d="M77.0927327,43.2931639 C75.0384061,45.8590453 72.6829678,48.1324743 71.1449294,50.8651819 C68.2955325,55.9267022 71.0170415,60.8767798 72.0036055,66.1449754 C80.0740775,59.4834096 82.1920098,50.1134509 77.0927327,43.2931639 Z" id="leaf22"></path>
                <path d="M100.145912,19.5745957 C98.2696054,21.7903983 96.1182803,23.7536496 94.7135225,26.1135173 C92.1110434,30.4844636 94.5967169,34.759172 95.497789,39.3085957 C102.868905,33.5559078 104.803305,25.4643495 100.145912,19.5745957 Z" id="leaf21" transform="translate(98.113351, 29.441596) rotate(14.000000) translate(-98.113351, -29.441596) "></path>
                <path d="M69.2312853,17.3478449 C71.5576966,22.0190442 74.5813526,23.7025299 78.6502838,26.664 C82.4570197,13.6857926 79.8740611,7.11496649 69.2312853,1.617 C67.2230406,7.73967973 66.4072915,11.6749718 69.2312853,17.3478449 Z" id="leaf20" transform="translate(73.857964, 14.140500) rotate(-329.000000) translate(-73.857964, -14.140500) "></path>
                <path d="M21.6330871,84.3525394 C24.1020043,87.4052906 27.7956553,88.3063865 31.3071876,89.474923 C32.6138454,89.909875 34.0106784,90.0860508 35.4405169,90.3962358 C34.8876774,81.3737244 27.6860304,73.1206102 17.2245169,72.9392358 C17.9812821,77.1120029 18.9596547,81.0467883 21.6330871,84.3525394 Z" id="leaf19"></path>
                <path d="M103.905213,74.3059507 C96.7333399,78.371917 94.4239141,88.3997247 98.8715718,96.1595067 C106.659878,90.0436719 109.105312,79.4296086 103.905213,74.3059507" id="leaf18"></path>
                <path d="M57.648009,68.8511732 C59.8485247,72.9852648 63.5129586,75.7678504 67.3616965,78.3888023 C70.962428,66.902866 67.5626992,58.207597 57.4958654,53.3418023 C55.5962984,58.7604789 54.9768377,63.8305832 57.648009,68.8511732 Z" id="leaf17"></path>
                <path d="M114.670035,60.4699349 C107.075936,59.0493608 101.217233,62.5932994 99.4900351,71.9160506 C106.048798,73.915724 113.816683,68.0581989 114.670035,60.4699349" id="leaf16"></path>
                <path d="M127.13931,45.0780409 C120.870771,44.0541198 116.034713,46.6085193 114.609,53.3281703 C120.022922,54.7694946 126.434911,50.5475086 127.13931,45.0780409" id="leaf15"></path>
                <path d="M99.4386719,13.3472267 C93.1701339,12.3233056 88.3340759,14.8777051 86.9083624,21.5973561 C92.3222843,23.0386804 98.7342734,18.8166944 99.4386719,13.3472267" id="leaf14" transform="translate(93.173517, 17.505748) rotate(-39.000000) translate(-93.173517, -17.505748) "></path>
                <path d="M87.7175148,43.3419873 C92.6363498,33.9410674 87.1577382,22.856984 77.8959802,19.0539873 C77.5589972,20.7774588 77.1165131,22.4447433 76.926611,24.1395106 C76.5672866,27.3427734 76.3122221,30.6706246 77.9363189,33.5624167 C80.2176257,37.6249723 83.8189377,40.549133 87.7175148,43.3419873" id="leaf13" transform="translate(83.110500, 31.197987) rotate(29.000000) translate(-83.110500, -31.197987) "></path>
                <path d="M41.745,103.364566 C34.4471678,96.6701886 21.4223292,97.3794992 15.939,104.70214 C17.2667431,105.470017 18.5398074,106.320717 19.9073708,106.97501 C23.0525885,108.478819 26.3380691,109.885017 29.8803022,109.194046 C34.2635185,108.339205 38.0351646,106.032615 41.745,103.364566" id="leaf12"></path>
                <path d="M121.43545,117.72966 C114.137618,111.035283 101.11278,111.744593 95.6294503,119.067234 C96.9571934,119.835112 98.2302577,120.685811 99.5978211,121.340104 C102.743039,122.843914 106.028519,124.250111 109.570752,123.55914 C113.953969,122.704299 117.725615,120.397709 121.43545,117.72966" id="leaf11" transform="translate(108.532450, 118.427081) rotate(6.000000) translate(-108.532450, -118.427081) "></path>
                <path d="M32.1303174,55.8584858 C26.64061,61.465737 28.4499872,72.6701084 35.6489268,78.1834777 C40.3104077,70.4797548 38.9016106,61.3421371 32.1303174,55.8584858" id="leaf10"></path>
                <path d="M81.0721446,74.0357868 C89.3151639,75.9802913 99.7681405,69.1451452 99.6443125,61.8919206 C89.7211573,61.0956125 82.6095063,65.7458083 81.0721446,74.0357868" id="leaf9"></path>
                <path d="M138.600764,99.1805333 C131.437688,93.7488886 122.287273,94.7910458 116.127,101.656585 C121.840004,107.210479 132.374856,106.087948 138.600764,99.1805333" id="leaf8" transform="translate(127.363882, 100.450815) rotate(-24.000000) translate(-127.363882, -100.450815) "></path>
                <path d="M82.2488488,58.8620327 C90.5324674,58.0873378 97.8836545,48.3087562 95.7420394,41.0649873 C86.438024,42.7717476 80.6093122,50.4113066 82.2488488,58.8620327" id="leaf7"></path>
                <path d="M108.277085,87.2528791 C116.366504,88.9197902 126.088016,80.485274 126.575884,71.2834923 C116.538374,70.8093547 107.408936,78.8393005 108.277085,87.2528791 Z" id="leaf6"></path>
                <path d="M58.2162333,53.1243939 C55.9276937,49.3530661 53.449365,45.8800203 49.6504208,43.8436202 C45.8382969,41.8013714 41.7393805,42.532455 37.7232333,43.4788759 C39.1408521,50.8965829 49.7010312,55.9546179 58.2162333,53.1243939" id="leaf5" transform="translate(47.969733, 48.228858) rotate(-315.000000) translate(-47.969733, -48.228858) "></path>
                <path d="M98.0507885,106.540554 C109.097192,108.103452 121.490141,98.6132701 121.230981,89.0460918 C119.948042,89.0460918 118.65766,88.9542361 117.383517,89.0616262 C111.142722,89.5877704 105.56708,91.3141175 102.28327,97.3117556 C100.672829,100.252489 98.9114945,103.108797 98.0507885,106.540554" id="leaf4"></path>
                <path d="M29.2243624,120.696875 C30.3568491,121.355056 31.4426981,122.084227 32.6091493,122.64505 C35.291835,123.934029 38.0941567,125.139342 41.1154731,124.547081 C44.8540987,123.81436 48.071091,121.837283 51.2353624,119.550383 C45.0107408,113.812346 33.9013197,114.420326 29.2243624,120.696875 Z" id="leaf3" transform="translate(40.229862, 120.148173) rotate(-15.000000) translate(-40.229862, -120.148173) "></path>
                <path d="M81.4106783,97.6625098 C78.6657852,99.3559798 77.1457225,102.031536 76.4460547,105.228469 C76.1014339,106.805759 75.725534,108.387056 75.5345658,109.987812 C75.3463414,111.563958 75.3737794,113.16872 75.3068308,114.760318 C75.4346916,114.853032 80.8059457,111.810624 83.3593218,110.189265 C86.0592166,108.475192 87.5534876,105.906086 88.256448,102.748643 C88.899045,99.8619032 89.1081222,96.9585666 88.8787409,93.5103894 C86.1387867,95.0230089 83.7160152,96.2397433 81.4106783,97.6625098 Z" id="leaf2"></path>
                <path d="M44.9806908,36.3785272 C43.2157691,28.144607 37.411754,23.5080505 30.5642398,24.4642141 C30.3417892,30.9196179 38.3211217,37.3944511 44.9806908,36.3785272 Z" id="leaf1" transform="translate(37.770191, 30.412335) rotate(37.000000) translate(-37.770191, -30.412335) "></path>
                <path d="M67.551,23.4823408 C65.6002971,13.7045605 59.1853331,8.19864957 51.6170279,9.33409391 C51.3711614,16.999886 60.1904236,24.6887504 67.551,23.4823408 Z" id="leaf" transform="translate(59.581500, 16.397487) rotate(30.000000) translate(-59.581500, -16.397487) "></path>
            </g>
            <g id="root" transform="translate(46.747464, 161.347844)">
                <path d="M18.2083957,3.76043701 C17.8509023,9.80690289 16.632953,14.1696275 14.554548,16.8486108 C11.4369405,20.8670859 -2.42885042,26.7521558 0.370993333,26.7521558 C3.17083708,26.7521558 43.4517843,26.7521558 46.6863644,26.7521558 C49.9209445,26.7521558 36.8263932,23.4696974 31.4506125,19.0261597 C27.8667587,16.0638012 26.067684,9.72174794 26.0533884,-4.26325641e-14 L18.2083957,3.76043701 Z"></path>
            </g>
            <g id="trunk" transform="translate(22.521547, 61.476862)">
                <path d="M43.0143237,27.8964465 C45.5206562,36.9773298 43.8141307,56.0130765 43.5989542,56.559483 C43.0799593,55.8712405 42.6922356,55.3430701 42.2896255,54.8257063 C40.0092959,51.8951037 37.9576759,48.7443174 35.3884144,46.092659 C31.7134975,42.3022598 27.6569468,38.8799589 23.7682067,35.2955597 C21.2679641,32.989711 19.0627433,30.4724591 17.6214667,27.331804 C16.3344676,24.527503 16.3161979,21.5996019 16.4840085,18.6244222 C14.8275555,23.6717589 16.0705719,28.4097579 18.4523999,33.3044519 C12.0031948,31.7976129 6.00734895,31.4011474 -9.9475983e-14,33.1531601 C6.69347779,32.3291603 13.1656892,32.7040127 19.0519168,36.4471332 C24.7304111,40.0585488 28.6820801,45.2031444 32.0958079,50.9711432 C30.1142848,50.5304243 27.2218559,49.215098 24.3295719,48.9638256 C20.4800569,48.629392 16.2665027,49.372512 16.9439847,49.5539754 C17.6214667,49.7354387 19.8559933,49.3379643 24.3295719,50.6246139 C26.8292427,51.3435462 32.9889303,54.6294795 36.7601426,59.7041699 C39.7381448,63.7114859 40.6161085,69.2584961 41.2577256,72.5977615 C42.7030621,80.1184484 42.4310465,98.620577 42.2896255,106.205428 C42.2132215,110.282693 44.8094972,109.582385 50.0784526,104.104505 C50.9839623,86.4971527 51.8780633,76.6013559 52.7607557,74.4171144 C55.8073085,66.8783532 63.5590766,59.4890264 66.2675954,56.754001 C71.8439147,51.1217596 78.4900266,48.0087963 86.5828283,48.5329142 C88.076884,48.6294978 89.5641732,48.8179371 91.0555222,48.9638256 C84.9514115,46.9375965 78.8100848,47.5826128 72.4968875,48.9915174 C73.0091158,47.2280227 73.551117,45.8130394 73.8102761,44.3487512 C74.0734951,42.8648761 74.1716102,41.328319 74.1303342,39.8201292 C74.0917648,38.4078475 73.7757667,37.0029954 73.5822431,35.5947662 C73.2878979,36.5599266 73.4151092,37.4501166 73.4414988,38.344359 C73.6208125,44.4493872 70.4804536,48.8942584 65.8812251,52.3165593 C59.7520781,56.8769255 50.6395563,60.6988306 50.0420694,61.368837 C49.9466609,60.4712175 49.4770619,45.2727116 50.0420694,33.9231272 C50.4176133,26.3916337 57.7018114,18.1388027 65.126754,16.5819833 C67.1465711,16.1591769 69.2617967,16.1882195 71.7444464,15.97479 C63.5406731,14.5820952 57.0698151,17.377616 51.2431332,22.4749329 C51.4995857,18.2752354 52.337962,14.4031117 53.7061598,10.6471584 C55.0073686,7.07694275 56.9689934,3.96465489 60.2372402,1.86548157 C61.3618419,1.1427932 62.6136549,0.615973639 63.8072755,-2.84217094e-14 C59.5484047,0.878708009 56.0771612,3.03394033 53.4815101,6.48190681 C49.5948,11.6454139 47.8503817,17.6896552 46.4754174,23.8737064 C46.3285831,24.5356079 46.0340911,26.1813574 45.8865802,26.2272853 C43.2442398,20.7503881 39.0646846,16.3536949 33.0167363,14.7772886 C38.607942,17.4377274 41.4444825,22.2121985 43.0143237,27.8964465 Z" id="Path"></path>
            </g>
        </g>
    </g>
</svg>