<?xml version="1.0" encoding="UTF-8"?>
<svg width="168px" height="39px" viewBox="0 0 168 39" version="1.1" xmlns="http://www.w3.org/2000/svg" xmlns:xlink="http://www.w3.org/1999/xlink">
    <!-- Generator: Sketch 57.1 (83088) - https://sketch.com -->
    <title>UCDCAES</title>
    <desc>Created with Sketch.</desc>
    <g id="Web" stroke="none" stroke-width="1" fill="none" fill-rule="evenodd">
        <g id="take9-copy-4" transform="translate(-331.000000, -100.000000)" fill="#FFFFFF">
            <g id="UCDCAES" transform="translate(331.000000, 100.000000)">
                <path d="M74.3830905,12.8282255 L75.7402155,9.24322537 L75.9745905,9.44722538 C76.8063406,10.1256004 77.9358406,10.7031004 79.0004656,10.7259754 C79.9533407,10.7477254 80.4183407,10.4942254 80.2915907,9.68797538 C80.1982157,9.08610036 79.5175907,8.97997536 79.0930906,8.89672535 L78.1615906,8.71072535 C76.3495905,8.37135033 74.8252155,7.25310029 74.8252155,5.1347252 C74.8252155,1.93072508 77.5855906,0.134850005 80.3624657,0.134850005 C81.8208408,0.134850005 83.1603408,0.50647502 84.4128409,1.32135005 L83.2364658,4.49872518 C82.5907158,4.03335016 81.6138407,3.37897513 80.3778407,3.33435013 C79.9713407,3.31897513 79.0390906,3.53235014 79.3379657,4.47697518 C79.4669657,4.87972519 80.0437157,5.0488502 80.3980907,5.1347252 L81.4507157,5.38860021 C83.4134658,5.84647523 84.8350909,6.96397528 84.8350909,9.25222537 C84.8350909,12.4723505 82.0570908,14.0657256 79.2985907,14.0657256 C77.6879656,14.0657256 75.8238405,13.6071005 74.3830905,12.8282255" id="Fill-1"></path>
                <polygon id="Fill-3" points="68.6561277 13.8630006 73.3841279 13.8630006 73.3841279 0.354750014 68.6561277 0.354750014"></polygon>
                <polygon id="Fill-5" points="63.32569 0.354712514 68.1680652 0.354712514 63.221815 13.8629631 59.2925649 13.8629631 54.3624397 0.354712514 59.1879399 0.354712514 61.2571899 8.50608784"></polygon>
                <path d="M49.939577,4.25377517 L49.939577,4.25377517 C50.025827,4.82865019 50.871827,8.96302536 50.871827,8.96302536 L49.0133269,8.96302536 L49.939577,4.25377517 Z M42.8929517,13.8631506 L47.8054519,13.8631506 L48.1793269,12.1670255 L51.6833271,12.1670255 L52.1494521,13.8631506 L57.0645773,13.8631506 L52.4637021,0.354900014 L47.3104519,0.354900014 L42.8929517,13.8631506 Z" id="Fill-6"></path>
                <path d="M30.7464762,0.354712514 L35.5892264,0.354712514 C39.9107266,0.354712514 43.2126017,2.33883759 43.2126017,7.30421279 C43.2126017,11.3043379 40.5216016,13.8629631 36.7423515,13.8629631 L30.7464762,13.8558381 L30.7464762,0.354712514 Z M35.5056014,9.9847129 L35.8232264,9.9847129 C37.3809765,9.9847129 38.5367265,9.04946286 38.5367265,7.28658779 C38.5367265,5.38871271 37.5129765,4.33008767 35.8014764,4.33008767 L35.5056014,4.33008767 L35.5056014,9.9847129 Z" id="Fill-7"></path>
                <path d="M27.9189761,0.778425031 L28.1713511,2.99542512 C28.2306011,3.52155014 28.5313511,4.78417519 28.1597261,4.61467518 C27.9272261,4.51080018 27.7363511,3.93855016 27.5469761,3.43005014 C27.4502261,3.17167513 26.9897261,1.95142508 26.8693511,1.86217507 C26.286976,1.42680006 24.835351,0.935925037 23.8536009,0.931050037 C20.8757258,0.920175037 18.9058508,3.11692512 18.9058508,7.01580028 C18.9058508,9.81217539 20.2442258,13.1661755 23.6496009,13.1661755 C24.869476,13.1661755 27.2068511,12.7821755 27.8424761,11.0459254 C28.1301011,10.2599254 28.3937261,9.56167538 28.5834761,9.77392539 C28.7252261,9.92842539 28.5411011,10.5580504 28.4563511,10.8966754 C28.0547261,12.5058005 28.0337261,12.9940505 27.9066011,13.0559255 C26.367976,13.8295505 24.394726,14.0834256 22.6678509,14.0834256 C17.1763507,14.0834256 15.2807256,10.8798004 15.2807256,7.67692531 C15.2807256,2.11830008 18.6947257,-0.223200009 23.986726,0.0168000007 C25.325476,0.0666750026 26.6653511,0.304800012 27.9189761,0.778425031" id="Fill-8"></path>
                <path d="M11.7053255,1.02487504 L10.8255754,0.718125029 C10.5315754,0.452250018 10.8908254,0.378000015 10.8908254,0.378000015 C10.8908254,0.378000015 12.1617005,0.613875024 15.3274506,0.345375014 C15.3274506,0.345375014 15.6023256,0.400125016 15.4125756,0.623250025 L14.3738256,1.06800004 C13.6973255,1.36350005 13.6973255,1.19400005 13.6973255,1.93575008 L13.6913255,8.82000035 C13.6913255,14.2042506 8.21482533,14.0835006 7.14870028,14.0835006 C6.63982526,14.0835006 1.61707506,14.0835006 1.61707506,9.76125039 L1.61707506,2.4735001 C1.61707506,1.20337505 1.75320007,1.23637505 1.33095005,1.08787504 L0.0604500024,0.610875024 C0.0604500024,0.610875024 -0.155550006,0.306000012 0.228825009,0.325875013 C1.26720005,0.378000015 2.77020011,0.600375024 6.30570025,0.345375014 C6.30570025,0.345375014 6.61320026,0.420375017 6.41070025,0.642750026 L5.35395021,0.940125037 C4.54920018,1.30087505 4.65532518,1.02487504 4.63432518,1.85100007 L4.65982519,9.03675036 C4.65982519,10.7985004 5.56620022,12.9802505 8.41770033,12.9802505 C12.2993255,12.9802505 12.3357005,9.62250038 12.3357005,8.87625035 L12.3428255,1.75800007 C12.3844505,1.08787504 12.2993255,1.27875005 11.7053255,1.02487504" id="Fill-9"></path>
                <polygon id="Fill-10" points="1.61812506 17.4198757 167.733757 17.4198757 167.733757 16.8562507 1.61812506 16.8562507"></polygon>
                <path d="M6.45532526,23.0729634 C6.36457525,22.9499634 6.26107525,22.8423384 6.14557524,22.7500884 C6.02970024,22.6578384 5.90520023,22.5802134 5.77207523,22.5172134 C5.63857522,22.4542134 5.49870022,22.4065884 5.35245021,22.3743384 C5.20582521,22.3420884 5.0577002,22.3259634 4.9084502,22.3259634 C4.63882518,22.3259634 4.39282517,22.3743384 4.17007517,22.4710884 C3.94770016,22.5674634 3.75720015,22.7009634 3.59895014,22.8708384 C3.44070014,23.0407134 3.31770013,23.2398384 3.22957513,23.4685884 C3.14182512,23.6969634 3.09795012,23.9429635 3.09795012,24.2065885 C3.09795012,24.4762135 3.14182512,24.7237135 3.22957513,24.9494635 C3.31770013,25.1748385 3.44220014,25.3690885 3.60345014,25.5318385 C3.76432515,25.6942135 3.95782516,25.8217135 4.18320017,25.9139635 C4.40895018,26.0062135 4.65945019,26.0523385 4.9347002,26.0523385 C5.0783252,26.0523385 5.22120021,26.0354635 5.36332521,26.0020885 C5.50545022,25.9683385 5.64157522,25.9199635 5.77207523,25.8569635 C5.90220023,25.7939635 6.02557524,25.7185885 6.14107524,25.6304635 C6.25695025,25.5427135 6.36157525,25.4429635 6.45532526,25.3315885 L6.45532526,27.4454636 C6.30870025,27.4893386 6.17107525,27.5313386 6.04207524,27.5707136 C5.91345023,27.6104636 5.78745023,27.6438386 5.66445023,27.6719636 C5.54107522,27.6997136 5.41732522,27.7214636 5.29282521,27.7375886 C5.16832521,27.7537136 5.0374502,27.7619636 4.89982519,27.7619636 C4.42507518,27.7619636 3.97020016,27.6753386 3.53520014,27.5028386 C3.10020012,27.3299636 2.70532511,27.0835886 2.35095009,26.7644636 C1.97595008,26.4247136 1.70032507,26.0384635 1.52482506,25.6064635 C1.34895005,25.1744635 1.26082505,24.7049635 1.26082505,24.1979635 C1.26082505,23.7322134 1.34595005,23.2852134 1.51582506,22.8577134 C1.68570007,22.4298384 1.93470008,22.0492134 2.26282509,21.7150884 C2.4300751,21.5452134 2.6130751,21.3922134 2.81220011,21.2557133 C3.01132512,21.1195883 3.22170013,21.0037133 3.44295014,20.9088383 C3.66420015,20.8135883 3.89332515,20.7408383 4.13070016,20.6909633 C4.36807517,20.6414633 4.60507518,20.6163383 4.84245019,20.6163383 C5.1267002,20.6163383 5.40045021,20.6463383 5.66445023,20.7063383 C5.92807524,20.7667133 6.19170025,20.8507133 6.45532526,20.9590883 L6.45532526,23.0729634 Z" id="Fill-11"></path>
                <path d="M11.5405505,22.2819759 C11.2769254,22.2819759 11.0294254,22.3311009 10.7980504,22.4293509 C10.5663004,22.5272259 10.3634254,22.6592259 10.1890504,22.8246009 C10.0150504,22.9903509 9.87705039,23.1804759 9.77617539,23.3961009 C9.67492538,23.6113509 9.62467538,23.8363509 9.62467538,24.070726 C9.62467538,24.363601 9.67492538,24.633601 9.77617539,24.881476 C9.87705039,25.128976 10.0150504,25.342726 10.1890504,25.523101 C10.3634254,25.703101 10.5663004,25.843726 10.7980504,25.944976 C11.0294254,26.045851 11.2769254,26.096476 11.5405505,26.096476 C11.8041755,26.096476 12.0524255,26.045851 12.2853005,25.944976 C12.5181755,25.843726 12.7210505,25.703101 12.8939255,25.523101 C13.0668005,25.342726 13.2040505,25.128976 13.3049255,24.881476 C13.4061755,24.633601 13.4564255,24.363601 13.4564255,24.070726 C13.4564255,23.8363509 13.4061755,23.6113509 13.3049255,23.3961009 C13.2040505,23.1804759 13.0668005,22.9903509 12.8939255,22.8246009 C12.7210505,22.6592259 12.5181755,22.5272259 12.2853005,22.4293509 C12.0524255,22.3311009 11.8041755,22.2819759 11.5405505,22.2819759 M11.5405505,20.5723508 C11.8656755,20.5723508 12.1844255,20.6113508 12.4964255,20.6889758 C12.8084255,20.7666008 13.1035505,20.8772258 13.3818005,21.0208508 C13.6600505,21.1644758 13.9165506,21.3392258 14.1509256,21.5458509 C14.3853006,21.7524759 14.5866756,21.9853509 14.7550506,22.2444759 C14.9234256,22.5039759 15.0554256,22.7859759 15.1506756,23.0904759 C15.2459256,23.3953509 15.2935506,23.7189759 15.2935506,24.061726 C15.2935506,24.612601 15.2005506,25.117351 15.0145506,25.575601 C14.8285506,26.034226 14.5683006,26.4283511 14.2345506,26.7579761 C13.9004256,27.0872261 13.5040505,27.3444761 13.0458005,27.5289761 C12.5871755,27.7134761 12.0854255,27.8057261 11.5405505,27.8057261 C11.1771754,27.8057261 10.8321754,27.7641011 10.5055504,27.6804761 C10.1789254,27.5972261 9.87705039,27.4776011 9.60030038,27.3223511 C9.32355037,27.1671011 9.07305036,26.9788511 8.84880035,26.7579761 C8.62492534,26.5367261 8.43442534,26.286976 8.27767533,26.008726 C8.12092532,25.730101 8.00017532,25.427851 7.91505031,25.101226 C7.82992531,24.774226 7.78755031,24.428101 7.78755031,24.061726 C7.78755031,23.7189759 7.83517531,23.3953509 7.93042532,23.0904759 C8.02567532,22.7859759 8.15805032,22.5039759 8.32830033,22.2444759 C8.49817534,21.9853509 8.69955035,21.7524759 8.93242535,21.5458509 C9.16530036,21.3392258 9.42105037,21.1644758 9.69930039,21.0208508 C9.9775504,20.8772258 10.2726754,20.7666008 10.5846754,20.6889758 C10.8966754,20.6113508 11.2154254,20.5723508 11.5405505,20.5723508" id="Fill-12"></path>
                <polygon id="Fill-13" points="18.5703382 26.087626 20.6883383 26.087626 20.6883383 27.5816261 16.8082132 27.5816261 16.8082132 20.7967508 18.5703382 20.7967508"></polygon>
                <polygon id="Fill-14" points="24.034576 26.087626 26.152576 26.087626 26.152576 27.5816261 22.2724509 27.5816261 22.2724509 20.7967508 24.034576 20.7967508"></polygon>
                <polygon id="Fill-15" points="29.4988137 22.2907509 29.4988137 23.4243759 31.4896888 23.4243759 31.4896888 24.918751 29.4988137 24.918751 29.4988137 26.087626 31.5995638 26.087626 31.5995638 27.5816261 27.7366886 27.5816261 27.7366886 20.7967508 31.5995638 20.7967508 31.5995638 22.2907509"></polygon>
                <path d="M40.2892141,23.7936759 C40.2832141,24.039676 40.2730891,24.278551 40.2584641,24.509926 C40.2438391,24.741301 40.2123391,24.967801 40.1639641,25.189051 C40.1155891,25.410301 40.0469641,25.627051 39.9573391,25.839301 C39.8680891,26.051551 39.7473391,26.263426 39.5947141,26.4741761 C39.4278391,26.7059261 39.2418391,26.9058011 39.0367141,27.0741761 C38.831589,27.2425511 38.610339,27.3809261 38.373339,27.4893011 C38.135964,27.5980511 37.885464,27.6775511 37.621839,27.7289261 C37.358214,27.7803011 37.084089,27.8058011 36.799839,27.8058011 C36.2665889,27.8058011 35.7783389,27.7195511 35.3343389,27.5466761 C34.8907139,27.3738011 34.5089639,27.1296761 34.1894639,26.8150511 C33.8703388,26.5000511 33.6220888,26.122801 33.4447138,25.683301 C33.2673388,25.243801 33.1788388,24.757426 33.1788388,24.224176 C33.1788388,23.6736759 33.2680888,23.1734259 33.4469638,22.7234259 C33.6254638,22.2738009 33.8767138,21.8901759 34.2007139,21.5721759 C34.5243389,21.2545508 34.9117139,21.0081758 35.3628389,20.8338008 C35.8139639,20.6598008 36.3134639,20.5724258 36.861339,20.5724258 C37.558839,20.5724258 38.169714,20.7299258 38.693964,21.0449258 C39.2185891,21.3599258 39.6269641,21.8350509 39.9202141,22.4710509 L38.245839,23.1696759 C38.184339,23.0084259 38.106714,22.8621759 38.012964,22.7301759 C37.919214,22.5981759 37.810839,22.4849259 37.687839,22.3896759 C37.564464,22.2944259 37.426839,22.2213009 37.274589,22.1699259 C37.122339,22.1185509 36.956589,22.0930509 36.778089,22.0930509 C36.4878389,22.0930509 36.2332139,22.1560509 36.0134639,22.2820509 C35.7937139,22.4080509 35.6095889,22.5726759 35.4618389,22.7763009 C35.3137139,22.9799259 35.2027139,23.2090509 35.1277139,23.4640509 C35.0530889,23.7190509 35.0155889,23.975176 35.0155889,24.233176 C35.0155889,24.496801 35.0545889,24.755176 35.1322139,25.008676 C35.2098389,25.262176 35.3242139,25.489051 35.4749639,25.690051 C35.6257139,25.890676 35.8132139,26.051551 36.0374639,26.173426 C36.2617139,26.294926 36.518589,26.355676 36.808839,26.355676 C36.999339,26.355676 37.177089,26.330926 37.342839,26.281051 C37.508214,26.231176 37.653339,26.157301 37.777839,26.059051 C37.902339,25.960801 38.003964,25.838551 38.083089,25.691926 C38.162214,25.545676 38.210589,25.374301 38.228214,25.177801 L36.786714,25.177801 L36.786714,23.7936759 L40.2892141,23.7936759 Z" id="Fill-16"></path>
                <polygon id="Fill-17" points="43.5441017 22.2907509 43.5441017 23.4243759 45.5349768 23.4243759 45.5349768 24.918751 43.5441017 24.918751 43.5441017 26.087626 45.6448518 26.087626 45.6448518 27.5816261 41.7819767 27.5816261 41.7819767 20.7967508 45.6448518 20.7967508 45.6448518 22.2907509"></polygon>
                <path d="M53.0469021,23.7977259 C52.8586521,23.7977259 52.6816521,23.8326009 52.5166521,23.9027259 C52.3516521,23.973226 52.2065271,24.066976 52.0824021,24.185101 C51.9579021,24.303601 51.8592771,24.439351 51.7872771,24.593101 C51.7149021,24.746851 51.6792771,24.907726 51.6792771,25.074601 C51.6792771,25.284226 51.7149021,25.476976 51.7872771,25.653601 C51.8592771,25.830601 51.9579021,25.982851 52.0824021,26.111851 C52.2065271,26.240476 52.3516521,26.340976 52.5166521,26.412976 C52.6816521,26.4853511 52.8586521,26.5213511 53.0469021,26.5213511 C53.2351521,26.5213511 53.4125271,26.4853511 53.5786521,26.412976 C53.7451521,26.340976 53.8899021,26.240476 54.0132771,26.111851 C54.1366522,25.982851 54.2345272,25.830601 54.3065272,25.653601 C54.3789022,25.476976 54.4149022,25.284226 54.4149022,25.074601 C54.4149022,24.907726 54.3789022,24.746851 54.3065272,24.593101 C54.2345272,24.439351 54.1366522,24.303601 54.0132771,24.185101 C53.8899021,24.066976 53.7451521,23.973226 53.5786521,23.9027259 C53.4125271,23.8326009 53.2351521,23.7977259 53.0469021,23.7977259 M53.0469021,22.5771009 C53.2790271,22.5771009 53.5066521,22.6048509 53.7294021,22.6603509 C53.9521521,22.7154759 54.1629022,22.7946009 54.3616522,22.8973509 C54.5604022,22.9997259 54.7434022,23.1246009 54.9110272,23.2723509 C55.0779022,23.4193509 55.2219022,23.5858509 55.3422772,23.7711009 C55.4622772,23.956351 55.5564022,24.157726 55.6246522,24.375226 C55.6925272,24.592726 55.7266522,24.823351 55.7266522,25.068601 C55.7266522,25.461601 55.6602772,25.821976 55.5271522,26.149351 C55.3944022,26.4767261 55.2091522,26.7583511 54.9702772,26.9934761 C54.7317772,27.2286011 54.4490272,27.4127261 54.1216522,27.5439761 C53.7942771,27.6759761 53.4361521,27.7419761 53.0469021,27.7419761 C52.7877771,27.7419761 52.5410271,27.7119761 52.3077771,27.6523511 C52.0745271,27.5927261 51.8592771,27.5079761 51.6616521,27.3966011 C51.464027,27.2859761 51.285152,27.1513511 51.125027,26.9934761 C50.964902,26.8356011 50.829152,26.6574761 50.717027,26.4583511 C50.605277,26.259601 50.519027,26.043601 50.458652,25.810726 C50.397902,25.5771009 50.367152,25.329976 50.367152,25.068601 C50.367152,24.823351 50.401277,24.592726 50.469527,24.375226 C50.537402,24.157726 50.632277,23.956351 50.753402,23.7711009 C50.874527,23.5858509 51.018527,23.4193509 51.184652,23.2723509 C51.351152,23.1246009 51.533402,22.9997259 51.7321521,22.8973509 C51.9309021,22.7946009 52.1416521,22.7154759 52.3647771,22.6603509 C52.5871521,22.6048509 52.8147771,22.5771009 53.0469021,22.5771009" id="Fill-18"></path>
                <polygon id="Fill-19" points="57.8208023 23.8039509 57.8208023 24.613201 59.2045524 24.613201 59.2045524 25.680451 57.8208023 25.680451 57.8208023 27.5817011 56.5626772 27.5817011 56.5626772 22.7370759 59.3455524 22.7370759 59.3455524 23.8039509"></polygon>
                <path d="M66.7593027,22.8928134 L66.7416777,22.8928134 L66.0123026,25.0550635 L67.4800527,25.0550635 L66.7593027,22.8928134 Z M65.5244276,26.4039385 L65.0586776,27.5818136 L63.1866775,27.5818136 L65.7970526,20.7965633 L67.7215527,20.7965633 L70.2794278,27.5818136 L68.3984277,27.5818136 L67.9548027,26.4039385 L65.5244276,26.4039385 Z" id="Fill-20"></path>
                <path d="M78.3747781,23.7936759 C78.3687781,24.039676 78.3586531,24.278551 78.3440281,24.509926 C78.3294031,24.741301 78.2979031,24.967801 78.2495281,25.189051 C78.2011531,25.410301 78.1325281,25.627051 78.0429031,25.839301 C77.9536531,26.051551 77.8329031,26.263426 77.6802781,26.4741761 C77.5134031,26.7059261 77.3274031,26.9058011 77.1222781,27.0741761 C76.9171531,27.2425511 76.695903,27.3809261 76.458903,27.4893011 C76.221528,27.5980511 75.971028,27.6775511 75.707403,27.7289261 C75.443778,27.7803011 75.169653,27.8058011 74.885403,27.8058011 C74.352153,27.8058011 73.8639029,27.7195511 73.4199029,27.5466761 C72.9762779,27.3738011 72.5945279,27.1296761 72.2750279,26.8150511 C71.9559029,26.5000511 71.7076528,26.122801 71.5302778,25.683301 C71.3529028,25.243801 71.2644028,24.757426 71.2644028,24.224176 C71.2644028,23.6736759 71.3536528,23.1734259 71.5325278,22.7234259 C71.7110278,22.2738009 71.9622779,21.8901759 72.2862779,21.5721759 C72.6099029,21.2545508 72.9972779,21.0081758 73.4484029,20.8338008 C73.8995279,20.6598008 74.399028,20.5724258 74.946903,20.5724258 C75.644403,20.5724258 76.255278,20.7299258 76.7795281,21.0449258 C77.3041531,21.3599258 77.7125281,21.8350509 78.0057781,22.4710509 L76.331403,23.1696759 C76.269903,23.0084259 76.192278,22.8621759 76.098528,22.7301759 C76.004778,22.5981759 75.896403,22.4849259 75.773403,22.3896759 C75.650028,22.2944259 75.512403,22.2213009 75.360153,22.1699259 C75.207903,22.1185509 75.042153,22.0930509 74.863653,22.0930509 C74.573403,22.0930509 74.318778,22.1560509 74.0990279,22.2820509 C73.8792779,22.4080509 73.6951529,22.5726759 73.5474029,22.7763009 C73.3992779,22.9799259 73.2882779,23.2090509 73.2132779,23.4640509 C73.1386529,23.7190509 73.1011529,23.975176 73.1011529,24.233176 C73.1011529,24.496801 73.1401529,24.755176 73.2177779,25.008676 C73.2954029,25.262176 73.4097779,25.489051 73.5605279,25.690051 C73.7112779,25.890676 73.8987779,26.051551 74.1230279,26.173426 C74.347278,26.294926 74.604153,26.355676 74.894403,26.355676 C75.084903,26.355676 75.262653,26.330926 75.428403,26.281051 C75.593778,26.231176 75.738903,26.157301 75.863403,26.059051 C75.987903,25.960801 76.089528,25.838551 76.168653,25.691926 C76.247778,25.545676 76.296153,25.374301 76.313778,25.177801 L74.872278,25.177801 L74.872278,23.7936759 L78.3747781,23.7936759 Z" id="Fill-21"></path>
                <path d="M81.9896283,23.8376259 L82.1610033,23.8376259 C82.3046283,23.8376259 82.4497533,23.8282509 82.5960033,23.8091259 C82.7426283,23.7900009 82.8742533,23.7506259 82.9916283,23.6902509 C83.1086283,23.6302509 83.2038783,23.5455009 83.2773783,23.4356259 C83.3505033,23.3257509 83.3872533,23.1783759 83.3872533,22.9938759 C83.3872533,22.8093759 83.3505033,22.6612509 83.2773783,22.5498759 C83.2038783,22.4388759 83.1086283,22.3530009 82.9916283,22.2930009 C82.8742533,22.2330009 82.7426283,22.1932509 82.5960033,22.1741259 C82.4497533,22.1553759 82.3046283,22.1456259 82.1610033,22.1456259 L81.9896283,22.1456259 L81.9896283,23.8376259 Z M85.8701284,27.5816261 L83.6726283,27.5816261 L82.0117533,24.971251 L81.9896283,24.971251 L81.9896283,27.5816261 L80.2275032,27.5816261 L80.2275032,20.7967508 L82.8641283,20.7967508 C83.1982533,20.7967508 83.5095033,20.8376258 83.7978783,20.9197508 C84.0866283,21.0018758 84.3363784,21.1275008 84.5471284,21.2977508 C84.7582534,21.4676259 84.9236284,21.6836259 85.0440034,21.9457509 C85.1640034,22.2078759 85.2240034,22.5206259 85.2240034,22.8840009 C85.2240034,23.1183759 85.1917534,23.3418759 85.1272534,23.5541259 C85.0627534,23.7667509 84.9675034,23.957626 84.8415034,24.127501 C84.7158784,24.297751 84.5602534,24.441001 84.3757534,24.558376 C84.1912533,24.675376 83.9790033,24.756001 83.7386283,24.799876 L85.8701284,27.5816261 Z" id="Fill-22"></path>
                <polygon id="Fill-23" points="87.4020035 27.5816261 89.1641285 27.5816261 89.1641285 20.7963758 87.4020035 20.7963758"></polygon>
                <path d="M96.0444413,23.0729634 C95.9536913,22.9499634 95.8501913,22.8423384 95.7346913,22.7500884 C95.6188163,22.6578384 95.4943163,22.5802134 95.3611913,22.5172134 C95.2276913,22.4542134 95.0878163,22.4065884 94.9415663,22.3743384 C94.7949413,22.3420884 94.6468163,22.3259634 94.4975663,22.3259634 C94.2279412,22.3259634 93.9819412,22.3743384 93.7591912,22.4710884 C93.5368162,22.5674634 93.3463162,22.7009634 93.1880662,22.8708384 C93.0298162,23.0407134 92.9068162,23.2398384 92.8186912,23.4685884 C92.7309412,23.6969634 92.6870662,23.9429635 92.6870662,24.2065885 C92.6870662,24.4762135 92.7309412,24.7237135 92.8186912,24.9494635 C92.9068162,25.1748385 93.0313162,25.3690885 93.1925662,25.5318385 C93.3534412,25.6942135 93.5469412,25.8217135 93.7723162,25.9139635 C93.9980662,26.0062135 94.2485662,26.0523385 94.5238163,26.0523385 C94.6674413,26.0523385 94.8103163,26.0354635 94.9524413,26.0020885 C95.0945663,25.9683385 95.2306913,25.9199635 95.3611913,25.8569635 C95.4913163,25.7939635 95.6146913,25.7185885 95.7301913,25.6304635 C95.8460663,25.5427135 95.9506913,25.4429635 96.0444413,25.3315885 L96.0444413,27.4454636 C95.8978163,27.4893386 95.7601913,27.5313386 95.6311913,27.5707136 C95.5025663,27.6104636 95.3765663,27.6438386 95.2535663,27.6719636 C95.1301913,27.6997136 95.0064413,27.7214636 94.8819413,27.7375886 C94.7574413,27.7537136 94.6265663,27.7619636 94.4889413,27.7619636 C94.0141912,27.7619636 93.5593162,27.6753386 93.1243162,27.5028386 C92.6893162,27.3299636 92.2944412,27.0835886 91.9400662,26.7644636 C91.5650661,26.4247136 91.2894411,26.0384635 91.1139411,25.6064635 C90.9380661,25.1744635 90.8499411,24.7049635 90.8499411,24.1979635 C90.8499411,23.7322134 90.9350661,23.2852134 91.1049411,22.8577134 C91.2748161,22.4298384 91.5238161,22.0492134 91.8519411,21.7150884 C92.0191912,21.5452134 92.2021912,21.3922134 92.4013162,21.2557133 C92.6004412,21.1195883 92.8108162,21.0037133 93.0320662,20.9088383 C93.2533162,20.8135883 93.4824412,20.7408383 93.7198162,20.6909633 C93.9571912,20.6414633 94.1941912,20.6163383 94.4315663,20.6163383 C94.7158163,20.6163383 94.9895663,20.6463383 95.2535663,20.7063383 C95.5171913,20.7667133 95.7808163,20.8507133 96.0444413,20.9590883 L96.0444413,23.0729634 Z" id="Fill-24"></path>
                <path d="M104.035542,20.7966008 L104.035542,24.611101 C104.035542,24.830851 104.030292,25.047601 104.020167,25.261351 C104.010042,25.475476 103.981167,25.683976 103.934292,25.887601 C103.887417,26.091226 103.816542,26.287726 103.721292,26.4763511 C103.626042,26.6653511 103.495167,26.8419761 103.327917,27.0062261 C103.187292,27.1468511 103.027542,27.2646011 102.849042,27.3598511 C102.670167,27.4551011 102.482667,27.5327261 102.286542,27.5927261 C102.090417,27.6527261 101.888667,27.6958511 101.682417,27.7224761 C101.475792,27.7487261 101.274417,27.7618511 101.077917,27.7618511 C100.878792,27.7618511 100.675917,27.7487261 100.469291,27.7224761 C100.262666,27.6958511 100.062041,27.6527261 99.8674165,27.5927261 C99.6724165,27.5327261 99.4856665,27.4551011 99.3071664,27.3598511 C99.1282914,27.2646011 98.9685414,27.1468511 98.8279164,27.0062261 C98.6580414,26.8419761 98.5256664,26.6653511 98.4304164,26.4763511 C98.3351664,26.287726 98.2639164,26.091226 98.2170414,25.887601 C98.1701664,25.683976 98.1416664,25.475476 98.1315414,25.261351 C98.1214164,25.047601 98.1161664,24.830851 98.1161664,24.611101 L98.1161664,20.7966008 L99.8782915,20.7966008 L99.8782915,24.369226 C99.8782915,24.515851 99.8820415,24.663976 99.8891665,24.813226 C99.8966665,24.962476 99.9127915,25.105351 99.9375415,25.241851 C99.9626665,25.377976 100.000541,25.505476 100.051916,25.623976 C100.103291,25.742476 100.173416,25.845976 100.262666,25.933726 C100.352291,26.021851 100.462916,26.090476 100.594541,26.140351 C100.726542,26.190226 100.887417,26.214976 101.077917,26.214976 C101.265417,26.214976 101.425917,26.190226 101.559042,26.140351 C101.692542,26.090476 101.803167,26.021851 101.890917,25.933726 C101.979042,25.845976 102.048417,25.742476 102.099792,25.623976 C102.151167,25.505476 102.189792,25.377976 102.216042,25.241851 C102.242667,25.105351 102.258792,24.962476 102.264417,24.813226 C102.270417,24.663976 102.273417,24.515851 102.273417,24.369226 L102.273417,20.7966008 L104.035542,20.7966008 Z" id="Fill-25"></path>
                <polygon id="Fill-26" points="107.975967 26.087626 110.093967 26.087626 110.093967 27.5816261 106.213842 27.5816261 106.213842 20.7967508 107.975967 20.7967508"></polygon>
                <polygon id="Fill-27" points="113.899055 27.5817761 112.136929 27.5817761 112.136929 22.2909009 110.677804 22.2909009 110.677804 20.7965258 115.35818 20.7965258 115.35818 22.2909009 113.899055 22.2909009"></polygon>
                <path d="M122.865005,20.7966008 L122.865005,24.611101 C122.865005,24.830851 122.859755,25.047601 122.84963,25.261351 C122.839505,25.475476 122.81063,25.683976 122.763755,25.887601 C122.71688,26.091226 122.646005,26.287726 122.550755,26.4763511 C122.455505,26.6653511 122.32463,26.8419761 122.15738,27.0062261 C122.016755,27.1468511 121.857005,27.2646011 121.678505,27.3598511 C121.49963,27.4551011 121.31213,27.5327261 121.116005,27.5927261 C120.91988,27.6527261 120.71813,27.6958511 120.51188,27.7224761 C120.305255,27.7487261 120.10388,27.7618511 119.90738,27.7618511 C119.708255,27.7618511 119.50538,27.7487261 119.298755,27.7224761 C119.09213,27.6958511 118.891505,27.6527261 118.69688,27.5927261 C118.50188,27.5327261 118.31513,27.4551011 118.13663,27.3598511 C117.957755,27.2646011 117.798005,27.1468511 117.65738,27.0062261 C117.487505,26.8419761 117.35513,26.6653511 117.25988,26.4763511 C117.16463,26.287726 117.09338,26.091226 117.046505,25.887601 C116.99963,25.683976 116.97113,25.475476 116.961005,25.261351 C116.95088,25.047601 116.94563,24.830851 116.94563,24.611101 L116.94563,20.7966008 L118.707755,20.7966008 L118.707755,24.369226 C118.707755,24.515851 118.711505,24.663976 118.71863,24.813226 C118.72613,24.962476 118.742255,25.105351 118.767005,25.241851 C118.79213,25.377976 118.830005,25.505476 118.88138,25.623976 C118.932755,25.742476 119.00288,25.845976 119.09213,25.933726 C119.181755,26.021851 119.29238,26.090476 119.424005,26.140351 C119.556005,26.190226 119.71688,26.214976 119.90738,26.214976 C120.09488,26.214976 120.25538,26.190226 120.388505,26.140351 C120.522005,26.090476 120.63263,26.021851 120.72038,25.933726 C120.808505,25.845976 120.87788,25.742476 120.929255,25.623976 C120.98063,25.505476 121.019255,25.377976 121.045505,25.241851 C121.07213,25.105351 121.088255,24.962476 121.09388,24.813226 C121.09988,24.663976 121.10288,24.515851 121.10288,24.369226 L121.10288,20.7966008 L122.865005,20.7966008 Z" id="Fill-28"></path>
                <path d="M126.80543,23.8376259 L126.976805,23.8376259 C127.12043,23.8376259 127.265555,23.8282509 127.411805,23.8091259 C127.55843,23.7900009 127.690055,23.7506259 127.80743,23.6902509 C127.92443,23.6302509 128.01968,23.5455009 128.09318,23.4356259 C128.166305,23.3257509 128.203055,23.1783759 128.203055,22.9938759 C128.203055,22.8093759 128.166305,22.6612509 128.09318,22.5498759 C128.01968,22.4388759 127.92443,22.3530009 127.80743,22.2930009 C127.690055,22.2330009 127.55843,22.1932509 127.411805,22.1741259 C127.265555,22.1553759 127.12043,22.1456259 126.976805,22.1456259 L126.80543,22.1456259 L126.80543,23.8376259 Z M130.68593,27.5816261 L128.48843,27.5816261 L126.827555,24.971251 L126.80543,24.971251 L126.80543,27.5816261 L125.043305,27.5816261 L125.043305,20.7967508 L127.67993,20.7967508 C128.014055,20.7967508 128.325305,20.8376258 128.61368,20.9197508 C128.90243,21.0018758 129.15218,21.1275008 129.36293,21.2977508 C129.574055,21.4676259 129.73943,21.6836259 129.859805,21.9457509 C129.979805,22.2078759 130.039805,22.5206259 130.039805,22.8840009 C130.039805,23.1183759 130.007555,23.3418759 129.943055,23.5541259 C129.878555,23.7667509 129.783305,23.957626 129.657305,24.127501 C129.53168,24.297751 129.376055,24.441001 129.191555,24.558376 C129.007055,24.675376 128.794805,24.756001 128.55443,24.799876 L130.68593,27.5816261 Z" id="Fill-29"></path>
                <path d="M135.485743,22.8928134 L135.468118,22.8928134 L134.738743,25.0550635 L136.206493,25.0550635 L135.485743,22.8928134 Z M134.250868,26.4039385 L133.785118,27.5818136 L131.913118,27.5818136 L134.523493,20.7965633 L136.447993,20.7965633 L139.005868,27.5818136 L137.124868,27.5818136 L136.681243,26.4039385 L134.250868,26.4039385 Z" id="Fill-30"></path>
                <polygon id="Fill-31" points="142.329868 26.087626 144.447868 26.087626 144.447868 27.5816261 140.567743 27.5816261 140.567743 20.7967508 142.329868 20.7967508"></polygon>
                <path d="M3.55421264,34.7338889 L3.54183764,34.7338889 L3.02058762,36.2777639 L4.06871266,36.2777639 L3.55421264,34.7338889 Z M2.67221261,37.241139 L2.33996259,38.081889 L1.00308754,38.081889 L2.86721261,33.2372638 L4.24121267,33.2372638 L6.06708774,38.081889 L4.72458769,38.081889 L4.40733768,37.241139 L2.67221261,37.241139 Z" id="Fill-32"></path>
                <polygon id="Fill-33" points="6.68313777 33.2371513 7.94126282 33.2371513 10.2508879 36.1989014 10.2632629 36.1989014 10.2632629 33.2371513 11.521388 33.2371513 11.521388 38.0817765 10.2632629 38.0817765 7.95701282 35.1132764 7.94126282 35.1132764 7.94126282 38.0817765 6.68313777 38.0817765"></polygon>
                <path d="M13.8623256,37.015014 L14.1480756,37.015014 C14.3363256,37.015014 14.5140756,36.989139 14.6828256,36.936264 C14.8512006,36.884139 14.9982006,36.802764 15.1249506,36.691764 C15.2517006,36.581139 15.3529506,36.4405139 15.4279506,36.2698889 C15.5029506,36.0992639 15.5412006,35.8960139 15.5412006,35.6597639 C15.5412006,35.4422639 15.5067006,35.2487639 15.4388256,35.0803889 C15.3709506,34.9123889 15.2760756,34.7706389 15.1534506,34.6555139 C15.0312006,34.5403889 14.8857006,34.4530139 14.7169506,34.3933889 C14.5485756,34.3341389 14.3633256,34.3041389 14.1604506,34.3041389 L13.8623256,34.3041389 L13.8623256,37.015014 Z M12.6042005,33.2372638 L14.3892006,33.2372638 C14.6130756,33.2372638 14.8298256,33.2653888 15.0387006,33.3216388 C15.2479506,33.3782638 15.4444506,33.4585138 15.6270756,33.5620138 C15.8100756,33.6651388 15.9769506,33.7903888 16.1277006,33.9370138 C16.2780756,34.0836389 16.4067007,34.2463889 16.5135757,34.4263889 C16.6200757,34.6063889 16.7033257,34.8006389 16.7629507,35.0083889 C16.8229507,35.2165139 16.8525757,35.4332639 16.8525757,35.6597639 C16.8525757,35.8851389 16.8229507,36.1022639 16.7629507,36.3107639 C16.7033257,36.518889 16.6200757,36.712764 16.5120757,36.892389 C16.4040757,37.072389 16.2750756,37.235889 16.1243256,37.382139 C15.9739506,37.528389 15.8074506,37.653264 15.6255756,37.757139 C15.4437006,37.860639 15.2479506,37.940514 15.0387006,37.996764 C14.8298256,38.053764 14.6130756,38.081889 14.3892006,38.081889 L12.6042005,38.081889 L12.6042005,33.2372638 Z" id="Fill-34"></path>
                <polygon id="Fill-35" points="22.9502259 32.7907513 22.9502259 33.9243763 24.941101 33.9243763 24.941101 35.4187514 22.9502259 35.4187514 22.9502259 36.5876265 25.050976 36.5876265 25.050976 38.0816265 21.1881008 38.0816265 21.1881008 31.2967512 25.050976 31.2967512 25.050976 32.7907513"></polygon>
                <polygon id="Fill-36" points="27.0309011 31.2966012 28.7930261 31.2966012 32.0274013 35.4452264 32.0450263 35.4452264 32.0450263 31.2966012 33.8071513 31.2966012 33.8071513 38.0818515 32.0450263 38.0818515 28.8151511 33.9246013 28.7930261 33.9246013 28.7930261 38.0818515 27.0309011 38.0818515"></polygon>
                <polygon id="Fill-37" points="38.663964 35.4186764 40.3120891 31.2966762 42.2279642 31.2966762 39.3318391 38.0819265 37.960839 38.0819265 35.1089639 31.2966762 37.029339 31.2966762"></polygon>
                <polygon id="Fill-38" points="43.5341267 38.0816265 45.2962518 38.0816265 45.2962518 31.2963762 43.5341267 31.2963762"></polygon>
                <path d="M49.096952,34.3376264 L49.268327,34.3376264 C49.411952,34.3376264 49.557077,34.3282514 49.703327,34.3091264 C49.849952,34.2900014 49.981577,34.2506264 50.098952,34.1902514 C50.215952,34.1302514 50.311202,34.0455014 50.384702,33.9356263 C50.457827,33.8257513 50.494577,33.6783763 50.494577,33.4938763 C50.494577,33.3093763 50.457827,33.1612513 50.384702,33.0498763 C50.311202,32.9388763 50.215952,32.8530013 50.098952,32.7930013 C49.981577,32.7330013 49.849952,32.6932513 49.703327,32.6741263 C49.557077,32.6553763 49.411952,32.6456263 49.268327,32.6456263 L49.096952,32.6456263 L49.096952,34.3376264 Z M52.9774521,38.0816265 L50.779952,38.0816265 L49.119077,35.4712514 L49.096952,35.4712514 L49.096952,38.0816265 L47.3348269,38.0816265 L47.3348269,31.2967512 L49.971452,31.2967512 C50.305577,31.2967512 50.616827,31.3376262 50.905202,31.4197512 C51.193952,31.5015013 51.443702,31.6275013 51.6544521,31.7977513 C51.8655771,31.9676263 52.0309521,32.1836263 52.1513271,32.4457513 C52.2713271,32.7078763 52.3313271,33.0206263 52.3313271,33.3840013 C52.3313271,33.6183763 52.2990771,33.8418763 52.2345771,34.0541264 C52.1700771,34.2667514 52.0748271,34.4576264 51.9488271,34.6275014 C51.8232021,34.7977514 51.6675771,34.9410014 51.483077,35.0583764 C51.298577,35.1753764 51.086327,35.2560014 50.845952,35.2998764 L52.9774521,38.0816265 Z" id="Fill-39"></path>
                <path d="M57.5732648,32.7819763 C57.3096398,32.7819763 57.0621398,32.8311013 56.8307648,32.9293513 C56.5990147,33.0272263 56.3961397,33.1592263 56.2217647,33.3246013 C56.0477647,33.4903513 55.9097647,33.6804763 55.8088897,33.8961013 C55.7076397,34.1113514 55.6573897,34.3363514 55.6573897,34.5707264 C55.6573897,34.8636014 55.7076397,35.1336014 55.8088897,35.3814764 C55.9097647,35.6289764 56.0477647,35.8427264 56.2217647,36.0231014 C56.3961397,36.2031014 56.5990147,36.3437264 56.8307648,36.4449764 C57.0621398,36.5458515 57.3096398,36.5964765 57.5732648,36.5964765 C57.8368898,36.5964765 58.0851398,36.5458515 58.3180148,36.4449764 C58.5508898,36.3437264 58.7537648,36.2031014 58.9266398,36.0231014 C59.0995148,35.8427264 59.2367649,35.6289764 59.3376399,35.3814764 C59.4388899,35.1336014 59.4891399,34.8636014 59.4891399,34.5707264 C59.4891399,34.3363514 59.4388899,34.1113514 59.3376399,33.8961013 C59.2367649,33.6804763 59.0995148,33.4903513 58.9266398,33.3246013 C58.7537648,33.1592263 58.5508898,33.0272263 58.3180148,32.9293513 C58.0851398,32.8311013 57.8368898,32.7819763 57.5732648,32.7819763 M57.5732648,31.0723512 C57.8983898,31.0723512 58.2171398,31.1113512 58.5291398,31.1889762 C58.8411398,31.2666012 59.1362648,31.3772262 59.4145149,31.5208513 C59.6927649,31.6644763 59.9492649,31.8392263 60.1836399,32.0458513 C60.4180149,32.2524763 60.6193899,32.4853513 60.7877649,32.7444763 C60.9561399,33.0039763 61.0881399,33.2859763 61.1833899,33.5904763 C61.2786399,33.8953513 61.3262649,34.2189764 61.3262649,34.5617264 C61.3262649,35.1126014 61.2332649,35.6173514 61.0472649,36.0756014 C60.8612649,36.5342265 60.6010149,36.9283515 60.2672649,37.2579765 C59.9331399,37.5872265 59.5367649,37.8444765 59.0785148,38.0289765 C58.6198898,38.2134765 58.1181398,38.3057265 57.5732648,38.3057265 C57.2098898,38.3057265 56.8648898,38.2641015 56.5382647,38.1804765 C56.2116397,38.0972265 55.9097647,37.9776015 55.6330147,37.8223515 C55.3562647,37.6671015 55.1057647,37.4788515 54.8815147,37.2579765 C54.6576397,37.0367265 54.4671397,36.7869765 54.3103897,36.5087265 C54.1536397,36.2301014 54.0328896,35.9278514 53.9477646,35.6012264 C53.8626396,35.2742264 53.8202646,34.9281014 53.8202646,34.5617264 C53.8202646,34.2189764 53.8678896,33.8953513 53.9631396,33.5904763 C54.0583896,33.2859763 54.1907647,33.0039763 54.3610147,32.7444763 C54.5308897,32.4853513 54.7322647,32.2524763 54.9651397,32.0458513 C55.1980147,31.8392263 55.4537647,31.6644763 55.7320147,31.5208513 C56.0102647,31.3772262 56.3053897,31.2666012 56.6173897,31.1889762 C56.9293898,31.1113512 57.2481398,31.0723512 57.5732648,31.0723512" id="Fill-40"></path>
                <polygon id="Fill-41" points="63.200815 31.2966012 64.9629401 31.2966012 68.1973152 35.4452264 68.2149402 35.4452264 68.2149402 31.2966012 69.9770653 31.2966012 69.9770653 38.0818515 68.2149402 38.0818515 64.9850651 33.9246013 64.9629401 33.9246013 64.9629401 38.0818515 63.200815 38.0818515"></polygon>
                <polygon id="Fill-42" points="72.7431779 31.2966012 74.479053 31.2966012 75.859053 34.9221014 77.3136781 31.2966012 79.0713031 31.2966012 80.0950532 38.0818515 78.3329281 38.0818515 77.8364281 34.1751014 77.8188031 34.1751014 76.188678 38.0818515 75.489678 38.0818515 73.9296779 34.1751014 73.9120529 34.1751014 73.3450529 38.0818515 71.5919278 38.0818515"></polygon>
                <polygon id="Fill-43" points="83.4955158 32.7907513 83.4955158 33.9243763 85.4863909 33.9243763 85.4863909 35.4187514 83.4955158 35.4187514 83.4955158 36.5876265 85.5962659 36.5876265 85.5962659 38.0816265 81.7333907 38.0816265 81.7333907 31.2967512 85.5962659 31.2967512 85.5962659 32.7907513"></polygon>
                <polygon id="Fill-44" points="87.576191 31.2966012 89.338316 31.2966012 92.5726912 35.4452264 92.5903162 35.4452264 92.5903162 31.2966012 94.3524412 31.2966012 94.3524412 38.0818515 92.5903162 38.0818515 89.3604411 33.9246013 89.338316 33.9246013 89.338316 38.0818515 87.576191 38.0818515"></polygon>
                <polygon id="Fill-45" points="98.9961039 38.0817765 97.2339789 38.0817765 97.2339789 32.7909013 95.7748538 32.7909013 95.7748538 31.2965262 100.455229 31.2965262 100.455229 32.7909013 98.9961039 32.7909013"></polygon>
                <path d="M104.410542,33.3928138 L104.392917,33.3928138 L103.663542,35.5550639 L105.131292,35.5550639 L104.410542,33.3928138 Z M103.175667,36.903939 L102.709917,38.081814 L100.837917,38.081814 L103.448292,31.2965637 L105.372792,31.2965637 L107.930667,38.081814 L106.049667,38.081814 L105.606042,36.903939 L103.175667,36.903939 Z" id="Fill-46"></path>
                <polygon id="Fill-47" points="111.254667 36.5876265 113.372667 36.5876265 113.372667 38.0816265 109.492542 38.0816265 109.492542 31.2967512 111.254667 31.2967512"></polygon>
                <path d="M122.559942,33.0412513 C122.396067,32.9066263 122.214192,32.7982513 122.015067,32.7161263 C121.815942,32.6340013 121.607817,32.5931263 121.391067,32.5931263 C121.308942,32.5931263 121.223817,32.6047513 121.136067,32.6280013 C121.048317,32.6516263 120.966942,32.6868763 120.892317,32.7337513 C120.817692,32.7806263 120.755817,32.8398763 120.707817,32.9115013 C120.659442,32.9835013 120.635067,33.0660013 120.635067,33.1597513 C120.635067,33.2595013 120.661692,33.3446263 120.714192,33.4147513 C120.767067,33.4852513 120.833067,33.5452513 120.911817,33.5951263 C120.990942,33.6446263 121.076067,33.6866263 121.166817,33.7203763 C121.257567,33.7537513 121.341192,33.7826263 121.417317,33.8058763 L121.865442,33.9420013 C122.102817,34.0125014 122.323317,34.0965014 122.526942,34.1947514 C122.730567,34.2930014 122.907192,34.4152514 123.056442,34.5618764 C123.206067,34.7081264 123.323817,34.8817514 123.410442,35.0823764 C123.496692,35.2833764 123.539817,35.5211264 123.539817,35.7967514 C123.539817,35.9636264 123.528942,36.1312514 123.506817,36.2996264 C123.485067,36.4683764 123.446817,36.6315015 123.392817,36.7897515 C123.338442,36.9480015 123.266067,37.0980015 123.175317,37.2401265 C123.084192,37.3822515 122.971692,37.5105015 122.836692,37.6248765 C122.570067,37.8502515 122.269317,38.0130015 121.933692,38.1123765 C121.598442,38.2121265 121.257567,38.2620015 120.911817,38.2620015 C120.484317,38.2620015 120.066942,38.1937515 119.659692,38.0576265 C119.252442,37.9215015 118.874442,37.7317515 118.525692,37.4883765 L119.281692,36.0648764 C119.393067,36.1612514 119.508567,36.2523764 119.628942,36.3371264 C119.748942,36.4222514 119.874942,36.4968765 120.006567,36.5613765 C120.138567,36.6258765 120.274692,36.6761265 120.415317,36.7128765 C120.555942,36.7496265 120.701067,36.7680015 120.850317,36.7680015 C120.953067,36.7680015 121.055442,36.7545015 121.158192,36.7282515 C121.260567,36.7020015 121.352067,36.6607515 121.432692,36.6052515 C121.513317,36.5493765 121.578567,36.4785014 121.628442,36.3922514 C121.677942,36.3056264 121.703067,36.2025014 121.703067,36.0821264 C121.703067,35.9591264 121.664817,35.8552514 121.588692,35.7701264 C121.512567,35.6853764 121.419567,35.6126264 121.309692,35.5526264 C121.199817,35.4926264 121.083192,35.4435014 120.960192,35.4056264 C120.837192,35.3673764 120.728817,35.3351264 120.635067,35.3088764 C120.356817,35.2297514 120.104817,35.1476264 119.879442,35.0628764 C119.653692,34.9777514 119.460942,34.8656264 119.301567,34.7265014 C119.141817,34.5873764 119.018067,34.4122514 118.929942,34.2015014 C118.842192,33.9903764 118.798317,33.7207513 118.798317,33.3926263 C118.798317,33.0498763 118.856067,32.7378763 118.971942,32.4566263 C119.087442,32.1753763 119.249442,31.9361263 119.457567,31.7381263 C119.665317,31.5405013 119.912067,31.3875012 120.197817,31.2791262 C120.483567,31.1707512 120.796317,31.1163762 121.136067,31.1163762 C121.305942,31.1163762 121.484817,31.1295012 121.672317,31.1561262 C121.859817,31.1823762 122.045817,31.2198762 122.230317,31.2678762 C122.414817,31.3162512 122.595192,31.3751262 122.770692,31.4437512 C122.946567,31.5127513 123.110817,31.5896263 123.263067,31.6743763 L122.559942,33.0412513 Z" id="Fill-48"></path>
                <path d="M130.059605,33.5730013 C129.968855,33.4500013 129.865355,33.3423763 129.749855,33.2501263 C129.63398,33.1578763 129.50948,33.0802513 129.376355,33.0172513 C129.242855,32.9542513 129.10298,32.9066263 128.95673,32.8743763 C128.810105,32.8421263 128.66198,32.8260013 128.51273,32.8260013 C128.243105,32.8260013 127.997105,32.8743763 127.774355,32.9711263 C127.55198,33.0675013 127.36148,33.2010013 127.20323,33.3708763 C127.04498,33.5407513 126.92198,33.7398763 126.833855,33.9686263 C126.746105,34.1970014 126.70223,34.4430014 126.70223,34.7066264 C126.70223,34.9762514 126.746105,35.2237514 126.833855,35.4495014 C126.92198,35.6748764 127.04648,35.8691264 127.20773,36.0318764 C127.368605,36.1942514 127.562105,36.3217514 127.78748,36.4140014 C128.01323,36.5062515 128.26373,36.5523765 128.53898,36.5523765 C128.682605,36.5523765 128.82548,36.5355015 128.967605,36.5021265 C129.10973,36.4683764 129.245855,36.4200014 129.376355,36.3570014 C129.50648,36.2940014 129.629855,36.2186264 129.745355,36.1305014 C129.86123,36.0427514 129.965855,35.9430014 130.059605,35.8316264 L130.059605,37.9455015 C129.91298,37.9893765 129.775355,38.0313765 129.646355,38.0707515 C129.51773,38.1105015 129.39173,38.1438765 129.26873,38.1720015 C129.145355,38.1997515 129.021605,38.2215015 128.897105,38.2376265 C128.772605,38.2537515 128.64173,38.2620015 128.504105,38.2620015 C128.029355,38.2620015 127.57448,38.1753765 127.13948,38.0028765 C126.70448,37.8300015 126.309605,37.5836265 125.95523,37.2645015 C125.58023,36.9247515 125.304605,36.5385015 125.129105,36.1065014 C124.95323,35.6745014 124.865105,35.2050014 124.865105,34.6980014 C124.865105,34.2322514 124.95023,33.7852513 125.120105,33.3577513 C125.28998,32.9298763 125.53898,32.5492513 125.867105,32.2151263 C126.034355,32.0452513 126.217355,31.8922513 126.41648,31.7557513 C126.615605,31.6196263 126.82598,31.5037513 127.04723,31.4088762 C127.26848,31.3136262 127.497605,31.2408762 127.73498,31.1910012 C127.972355,31.1415012 128.209355,31.1163762 128.44673,31.1163762 C128.73098,31.1163762 129.00473,31.1463762 129.26873,31.2063762 C129.532355,31.2667512 129.79598,31.3507512 130.059605,31.4591263 L130.059605,33.5730013 Z" id="Fill-49"></path>
                <polygon id="Fill-50" points="132.049505 38.0816265 133.81163 38.0816265 133.81163 31.2963762 132.049505 31.2963762"></polygon>
                <polygon id="Fill-51" points="137.612705 32.7907513 137.612705 33.9243763 139.603581 33.9243763 139.603581 35.4187514 137.612705 35.4187514 137.612705 36.5876265 139.713456 36.5876265 139.713456 38.0816265 135.85058 38.0816265 135.85058 31.2967512 139.713456 31.2967512 139.713456 32.7907513"></polygon>
                <polygon id="Fill-52" points="141.869518 31.2966012 143.631643 31.2966012 146.866018 35.4452264 146.883643 35.4452264 146.883643 31.2966012 148.645768 31.2966012 148.645768 38.0818515 146.883643 38.0818515 143.653768 33.9246013 143.631643 33.9246013 143.631643 38.0818515 141.869518 38.0818515"></polygon>
                <path d="M155.350844,33.5730013 C155.260094,33.4500013 155.156594,33.3423763 155.041094,33.2501263 C154.925219,33.1578763 154.800719,33.0802513 154.667594,33.0172513 C154.534094,32.9542513 154.394219,32.9066263 154.247969,32.8743763 C154.101344,32.8421263 153.953219,32.8260013 153.803969,32.8260013 C153.534344,32.8260013 153.288344,32.8743763 153.065594,32.9711263 C152.843219,33.0675013 152.652719,33.2010013 152.494469,33.3708763 C152.336219,33.5407513 152.213219,33.7398763 152.125094,33.9686263 C152.037344,34.1970014 151.993469,34.4430014 151.993469,34.7066264 C151.993469,34.9762514 152.037344,35.2237514 152.125094,35.4495014 C152.213219,35.6748764 152.337719,35.8691264 152.498969,36.0318764 C152.659844,36.1942514 152.853344,36.3217514 153.078719,36.4140014 C153.304469,36.5062515 153.554969,36.5523765 153.830219,36.5523765 C153.973844,36.5523765 154.116719,36.5355015 154.258844,36.5021265 C154.400969,36.4683764 154.537094,36.4200014 154.667594,36.3570014 C154.797719,36.2940014 154.921094,36.2186264 155.036594,36.1305014 C155.152469,36.0427514 155.257094,35.9430014 155.350844,35.8316264 L155.350844,37.9455015 C155.204219,37.9893765 155.066594,38.0313765 154.937594,38.0707515 C154.808969,38.1105015 154.682969,38.1438765 154.559969,38.1720015 C154.436594,38.1997515 154.312844,38.2215015 154.188344,38.2376265 C154.063844,38.2537515 153.932969,38.2620015 153.795344,38.2620015 C153.320594,38.2620015 152.865719,38.1753765 152.430719,38.0028765 C151.995719,37.8300015 151.600844,37.5836265 151.246469,37.2645015 C150.871468,36.9247515 150.595843,36.5385015 150.420343,36.1065014 C150.244468,35.6745014 150.156343,35.2050014 150.156343,34.6980014 C150.156343,34.2322514 150.241468,33.7852513 150.411343,33.3577513 C150.581218,32.9298763 150.830218,32.5492513 151.158344,32.2151263 C151.325594,32.0452513 151.508594,31.8922513 151.707719,31.7557513 C151.906844,31.6196263 152.117219,31.5037513 152.338469,31.4088762 C152.559719,31.3136262 152.788844,31.2408762 153.026219,31.1910012 C153.263594,31.1415012 153.500594,31.1163762 153.737969,31.1163762 C154.022219,31.1163762 154.295969,31.1463762 154.559969,31.2063762 C154.823594,31.2667512 155.087219,31.3507512 155.350844,31.4591263 L155.350844,33.5730013 Z" id="Fill-53"></path>
                <polygon id="Fill-54" points="159.096831 32.7907513 159.096831 33.9243763 161.087706 33.9243763 161.087706 35.4187514 159.096831 35.4187514 159.096831 36.5876265 161.197581 36.5876265 161.197581 38.0816265 157.334706 38.0816265 157.334706 31.2967512 161.197581 31.2967512 161.197581 32.7907513"></polygon>
                <path d="M166.803007,33.0412513 C166.639132,32.9066263 166.457257,32.7982513 166.258132,32.7161263 C166.059007,32.6340013 165.850882,32.5931263 165.634132,32.5931263 C165.552007,32.5931263 165.466882,32.6047513 165.379132,32.6280013 C165.291382,32.6516263 165.210007,32.6868763 165.135382,32.7337513 C165.060757,32.7806263 164.998882,32.8398763 164.950882,32.9115013 C164.902507,32.9835013 164.878132,33.0660013 164.878132,33.1597513 C164.878132,33.2595013 164.904757,33.3446263 164.957257,33.4147513 C165.010132,33.4852513 165.076132,33.5452513 165.154882,33.5951263 C165.234007,33.6446263 165.319132,33.6866263 165.409882,33.7203763 C165.500632,33.7537513 165.584257,33.7826263 165.660382,33.8058763 L166.108507,33.9420013 C166.345882,34.0125014 166.566382,34.0965014 166.770007,34.1947514 C166.973632,34.2930014 167.150257,34.4152514 167.299507,34.5618764 C167.449132,34.7081264 167.566882,34.8817514 167.653507,35.0823764 C167.739757,35.2833764 167.782882,35.5211264 167.782882,35.7967514 C167.782882,35.9636264 167.772007,36.1312514 167.749882,36.2996264 C167.728132,36.4683764 167.689882,36.6315015 167.635882,36.7897515 C167.581507,36.9480015 167.509132,37.0980015 167.418382,37.2401265 C167.327257,37.3822515 167.214757,37.5105015 167.079757,37.6248765 C166.813132,37.8502515 166.512382,38.0130015 166.176757,38.1123765 C165.841507,38.2121265 165.500632,38.2620015 165.154882,38.2620015 C164.727382,38.2620015 164.310007,38.1937515 163.902757,38.0576265 C163.495506,37.9215015 163.117506,37.7317515 162.768756,37.4883765 L163.524756,36.0648764 C163.636132,36.1612514 163.751632,36.2523764 163.872007,36.3371264 C163.992007,36.4222514 164.118007,36.4968765 164.249632,36.5613765 C164.381632,36.6258765 164.517757,36.6761265 164.658382,36.7128765 C164.799007,36.7496265 164.944132,36.7680015 165.093382,36.7680015 C165.196132,36.7680015 165.298507,36.7545015 165.401257,36.7282515 C165.503632,36.7020015 165.595132,36.6607515 165.675757,36.6052515 C165.756382,36.5493765 165.821632,36.4785014 165.871507,36.3922514 C165.921007,36.3056264 165.946132,36.2025014 165.946132,36.0821264 C165.946132,35.9591264 165.907882,35.8552514 165.831757,35.7701264 C165.755632,35.6853764 165.662632,35.6126264 165.552757,35.5526264 C165.442882,35.4926264 165.326257,35.4435014 165.203257,35.4056264 C165.080257,35.3673764 164.971882,35.3351264 164.878132,35.3088764 C164.599882,35.2297514 164.347882,35.1476264 164.122507,35.0628764 C163.896757,34.9777514 163.704007,34.8656264 163.544631,34.7265014 C163.384881,34.5873764 163.261131,34.4122514 163.173006,34.2015014 C163.085256,33.9903764 163.041381,33.7207513 163.041381,33.3926263 C163.041381,33.0498763 163.099131,32.7378763 163.215006,32.4566263 C163.330506,32.1753763 163.492506,31.9361263 163.700632,31.7381263 C163.908382,31.5405013 164.155132,31.3875012 164.440882,31.2791262 C164.726632,31.1707512 165.039382,31.1163762 165.379132,31.1163762 C165.549007,31.1163762 165.727882,31.1295012 165.915382,31.1561262 C166.102882,31.1823762 166.288882,31.2198762 166.473382,31.2678762 C166.657882,31.3162512 166.838257,31.3751262 167.013757,31.4437512 C167.189632,31.5127513 167.353882,31.5896263 167.506132,31.6743763 L166.803007,33.0412513 Z" id="Fill-55"></path>
            </g>
        </g>
    </g>
</svg>